<svg width="668" height="438" viewBox="0 0 668 438" fill="none" xmlns="http://www.w3.org/2000/svg">
<path d="M647.965 426.298H20.2021C15.6061 426.298 11.8688 422.561 11.8688 417.966C11.8688 413.371 15.6061 409.633 20.2021 409.633H647.965C652.559 409.633 656.297 413.371 656.297 417.966C656.297 422.561 652.559 426.298 647.965 426.298ZM42.1141 386.515C46.3808 390.402 50.5301 394.123 54.5501 397.653C53.8901 397.93 53.3328 398.222 52.8408 398.522H41.6955C41.7475 394.498 41.9034 390.499 42.1141 386.515M45.9394 352.13C49.4368 358.693 53.5368 365.867 58.3048 373.374C62.7541 380.381 68.0221 388.037 74.1168 395.923L74.2741 396.21C74.2741 396.21 74.3088 396.225 74.3728 396.25C74.9568 397.003 75.5728 397.765 76.1741 398.522H67.1261C68.6661 394.863 63.8528 394.242 63.8528 394.242C63.8528 394.242 62.9821 386.339 58.4288 387.822C56.4808 388.457 55.6594 390.279 55.3541 392.158C51.2048 388.486 46.9048 384.598 42.4901 380.546C43.1915 370.941 44.3421 361.461 45.9394 352.13ZM144.293 378.173C126.391 375.179 108.101 364.563 103.831 356.121C102.267 353.026 103.046 351.249 103.767 350.179C104.257 349.455 104.855 349.094 105.745 348.998C105.81 348.991 105.878 348.986 105.947 348.981C113.815 348.494 131.855 364.865 144.293 378.173M48.6381 338.45C49.5075 338.083 50.5101 337.661 51.7154 337.153C57.8514 334.563 53.0994 331.937 50.4288 330.814C50.5314 330.399 50.6248 329.981 50.7301 329.566C53.9408 328.181 59.9048 324.686 55.2674 319.178C54.8248 318.653 54.3888 318.229 53.9581 317.875C57.5408 305.814 61.8421 294.061 66.8635 282.69C76.6621 291.486 94.4448 298.589 109.294 296.978C109.549 296.95 109.795 296.902 110.049 296.869C118.999 319.511 129.743 343.614 141.526 366.978C141.538 367.015 141.549 367.051 141.559 367.089C139.742 365.279 137.807 363.401 135.795 361.527C122.109 348.783 112.229 342.787 105.59 343.198C102.81 343.359 100.501 344.663 98.9675 346.937C97.3288 349.358 95.9474 353.371 98.6608 358.735C104.931 371.134 130.094 383.631 150.75 384.702C153.262 389.382 155.822 393.974 158.399 398.522H82.1395C81.6061 397.867 81.0608 397.211 80.5408 396.558C82.0861 395.867 83.3608 394.277 83.5488 390.974C84.0688 381.877 75.0701 385.139 75.0701 385.139C73.6701 383.646 72.0768 383.382 70.7435 383.542C67.6595 379.195 64.8421 374.979 62.3021 370.982C61.1208 369.125 59.9821 367.287 58.8821 365.474C60.6168 365.605 66.6595 365.897 66.9261 363.622C67.2341 360.963 64.4141 359.895 64.4141 359.895C64.4141 359.895 69.6394 358.819 70.8208 353.299C72.0008 347.779 66.4621 348.493 66.4621 348.493C60.7754 343.533 58.6234 351.335 58.6234 351.335C53.6394 346.949 51.9768 351.734 51.6541 352.926C50.0888 350.062 48.6488 347.317 47.3128 344.695C47.7261 342.603 48.1808 340.526 48.6381 338.45M74.4754 266.762C78.4661 268.106 84.6541 271.614 93.9088 280.015C98.4781 284.165 102.561 288.403 105.343 291.417C91.7314 291.573 76.5074 284.161 69.4061 277.073C71.0288 273.597 72.7234 270.163 74.4754 266.762M90.3954 239.49C93.8968 252.155 98.6181 266.541 104.315 281.905C96.9208 274.447 86.3981 265.105 77.1901 261.623C81.2808 254.045 85.6821 246.657 90.3954 239.49ZM225.986 278.214C226.731 277.47 227.486 276.614 228.242 275.575C228.546 276.597 228.846 277.631 229.137 278.666C228.231 278.45 227.185 278.291 225.986 278.214ZM212.082 268.195C211.675 265.866 211.882 263.001 213.678 261.951C214.345 261.562 214.909 261.39 215.391 261.343C215.961 261.289 216.417 261.407 216.786 261.547C219.769 262.673 222.61 267.789 224.049 271.474C221.814 274.807 219.553 276.43 217.621 276.07C215.205 275.618 212.77 272.159 212.082 268.195M219.015 284.501C220.119 284.297 221.121 284.157 222.027 284.069C225.022 283.777 226.981 284.05 228.199 284.403C224.805 290.063 221.777 291.681 219.959 291.205C218.211 290.747 217.063 288.471 217.129 286.717C217.189 285.053 218.167 284.658 219.015 284.501M341.802 381.578C323.979 377.853 308.727 364.885 307.45 356.899C307.107 354.755 307.883 353.449 310.046 352.527C310.526 352.323 311.034 352.198 311.565 352.147C319.517 351.375 332.782 367.17 341.802 381.578M340.402 316.017C324.659 318.143 308.317 316.475 303.882 307.861C302.05 304.299 303.157 300.183 306.917 296.565C308.014 295.509 309.245 294.927 310.719 294.785C311.166 294.742 311.635 294.738 312.131 294.773C320.911 295.41 333.542 308.05 340.402 316.017ZM326.782 258.71C299.765 263.967 285.846 256.453 283.218 251.489C282.287 249.731 282.573 248.287 284.113 246.945C284.498 246.607 285.387 246.083 287.274 245.901C290.774 245.561 297.709 246.394 311.219 251.771C317.043 254.09 322.621 256.679 326.782 258.71M312.415 210.431L312.267 211.033C295.405 215.339 279.474 210.542 273.966 204.666C271.069 201.574 272.113 199.423 272.457 198.717C272.657 198.307 273.027 197.794 274.147 197.457C274.589 197.323 275.078 197.231 275.611 197.179C283.271 196.437 299.989 203.774 312.415 210.431ZM308.766 192.951C298.585 190.261 282.133 180.002 279.075 172.385C278.275 170.389 278.591 169.081 280.165 167.867C280.851 167.339 281.581 167.039 282.393 166.961C282.894 166.911 283.427 166.947 284.002 167.063C291.891 168.653 302.75 183.461 308.766 192.951M309.007 178.087C293.818 144.263 297.145 131.009 301.475 128.733C301.894 128.513 302.331 128.389 302.771 128.346C304.569 128.171 306.415 129.355 307.291 130.935C310.369 136.489 310.103 159.573 309.007 178.087M322.881 193.185C329.221 171.558 338.041 151.89 343.765 151.334C343.946 151.317 344.125 151.318 344.301 151.339C345.502 151.487 345.655 151.947 345.777 152.317C347.737 158.226 336.445 177.698 322.881 193.185ZM332.975 233.973C337.266 223.67 346.111 205.475 353.478 202.387C353.977 202.181 354.403 202.077 354.771 202.041C355.423 201.978 355.886 202.126 356.214 202.27C358.917 203.463 358.154 207.583 357.459 209.934C355.805 215.531 351.469 222.031 346.141 226.894C343.374 229.419 338.407 233.23 332.975 233.973ZM346.875 298.326C347.77 273.443 355.273 268.19 357.701 267.146C358.286 266.894 358.885 266.741 359.481 266.682C361.11 266.523 362.715 267.087 363.993 268.315C365.49 269.754 366.682 272.35 365.541 275.319C362.143 284.163 352.666 293.317 346.875 298.326M354.159 335.462C360.689 316.133 369.549 307.782 375.45 306.551C375.706 306.498 375.979 306.454 376.262 306.426C377.457 306.31 378.83 306.497 379.762 307.61C381.217 309.351 381.163 312.813 379.621 316.645C374.493 329.386 361.145 333.926 354.159 335.462M362.905 398.522H354.803C361.505 387.207 370.462 375.159 375.657 374.655C376.266 374.573 376.998 374.686 377.867 375.785C379.937 378.409 379.79 381.759 377.437 385.746C374.487 390.737 368.835 395.443 362.905 398.522M415.523 381.958C411.597 380.121 409.811 374.854 409.473 370.027C408.991 363.194 411.313 357.747 413.698 357.133C414.053 357.041 414.377 356.977 414.666 356.934C416.519 356.667 417.117 357.311 417.333 357.543C420.286 360.723 418.17 373.106 415.523 381.958ZM97.7061 228.901C101.839 231.382 105.435 231.121 108.097 230.087C111.949 228.591 113.047 226.063 113.287 224.207C113.707 220.99 111.713 217.426 109.022 214.194C109.262 213.902 109.494 213.603 109.735 213.311C116.523 214.502 124.189 214.951 128.797 212.333C131.093 211.029 132.59 209.034 133.125 206.566C133.681 204.01 133.091 201.634 131.421 199.695C130.002 198.05 127.815 196.838 125.246 195.937C179.341 139.95 255.162 105.085 338.979 105.085C371.453 105.085 402.721 110.329 431.995 119.997C431.903 120.467 431.858 120.955 431.874 121.463C431.978 124.729 433.725 127.143 436.061 128.871C428.51 131.031 418.921 134.774 416.167 140.321C415.031 142.613 415.049 145.061 416.221 147.399C417.353 149.657 419.298 151.217 421.846 151.91C427.406 153.425 435.57 150.533 442.173 147.378C439.95 151.591 438.459 156.171 439.817 159.565C440.51 161.302 442.202 163.479 446.305 163.971C450.254 164.446 455.586 163.079 459.942 154.815C460.737 183.525 456.509 227.485 448.374 272.71C448.094 274.269 447.809 275.785 447.526 277.315C445.866 251.501 441.106 228.887 438.631 218.471C443.33 221.423 450.193 224.918 450.421 220.323C450.767 213.315 446.083 212.297 446.083 212.297C446.083 212.297 449.855 207.131 445.993 204.133C442.133 201.135 436.978 201.919 436.978 201.919C436.978 201.919 436.339 195.879 433.033 194.999C429.725 194.119 425.777 200.343 425.777 200.343C425.777 200.343 414.847 194.361 417.055 210.175C417.055 210.175 411.598 209.801 412.706 213.279C413.814 216.759 424.467 218.445 424.467 218.445C424.467 218.445 424.911 231.495 429.187 229.255C431.355 228.121 432.635 224.607 433.373 221.418C436.767 236.057 443.498 270.034 442.131 304.153C436.223 331.238 429.958 353.214 424.014 370.769C424.971 364.126 424.905 357.185 421.579 353.603C420.049 351.951 417.187 350.245 412.251 351.521C405.873 353.166 403.117 362.281 403.691 370.434C404.411 380.631 409.557 387.493 417.126 388.342L417.61 388.397C416.194 392.033 414.815 395.399 413.482 398.522H373.506C377.166 395.629 380.317 392.261 382.425 388.693C386.015 382.615 386.013 376.757 382.417 372.197C379.986 369.115 377.101 368.695 375.107 368.887C375.103 368.887 375.102 368.887 375.098 368.887C369.614 369.421 363.109 375.367 355.211 387.069C353.858 389.073 352.591 391.059 351.445 392.925C352.203 374.955 351.866 357.875 350.794 341.915C354.799 341.482 377.187 338.209 384.997 318.809C387.41 312.813 387.121 307.375 384.206 303.891C381.903 301.139 378.282 300.043 374.269 300.879C370.621 301.641 358.895 305.973 349.867 330.218C349.082 321.69 348.103 313.529 346.985 305.774C351.542 302.167 366.137 289.923 370.949 277.397C372.726 272.77 371.573 267.566 368.009 264.138C364.581 260.843 359.755 259.958 355.41 261.823C351.554 263.482 345.882 268.282 342.935 281.995C342.783 281.226 342.635 280.442 342.482 279.685C339.578 265.309 336.155 251.891 332.613 239.819C332.738 239.809 332.863 239.818 332.99 239.805C346.587 238.485 359.626 223.047 363.015 211.575C365.998 201.486 360.887 197.999 358.553 196.97C356.278 195.966 353.75 195.993 351.239 197.045C342.282 200.798 333.593 218.046 329.085 228.323C326.151 219.183 323.226 211.042 320.534 204.114C328.245 196.489 336.326 186.371 342.417 176.635C347.642 168.281 353.422 156.965 351.277 150.494C350.355 147.713 348.127 145.971 345.003 145.587C337.646 144.693 330.673 153.813 323.062 174.307C320.361 181.582 318.11 188.943 316.566 194.361C315.681 192.289 314.843 190.398 314.065 188.698C314.723 180.737 317.937 138.191 312.359 128.127C309.599 123.149 303.509 121.121 298.779 123.603C295.803 125.167 290.993 129.79 292.209 143.175C292.914 150.945 295.521 160.473 299.963 171.614C294.477 165.705 289.511 162.265 285.15 161.383C282.006 160.749 279.062 161.405 276.631 163.277C272.959 166.105 271.919 170.105 273.699 174.542C278.021 185.313 300.806 198.581 312.323 199.362C312.882 200.707 313.465 202.134 314.077 203.665L313.841 204.626C302.435 198.589 282.07 189.013 272.47 191.909C270.057 192.638 268.251 194.117 267.246 196.183C265.255 200.278 266.163 204.814 269.738 208.629C276.105 215.421 290.015 219.619 304.885 218.175C309.387 217.738 313.973 216.747 318.469 215.19C322.294 225.719 326.565 238.833 330.579 254.075C317.163 247.353 289.174 234.845 280.305 242.578C276.723 245.701 275.898 250.045 278.098 254.199C281.649 260.909 294.755 268.122 317.821 265.881C322.438 265.433 327.485 264.575 332.905 263.289C334.275 268.959 335.602 274.869 336.843 281.033C338.551 289.514 340.159 298.739 341.539 308.609C339.997 306.937 338.253 305.121 336.354 303.281C327.057 294.274 319.05 289.467 312.553 288.994C308.771 288.719 305.525 289.862 302.899 292.389C297.247 297.826 295.69 304.602 298.73 310.513C302.585 317.998 314.498 324.471 336.653 322.321C338.717 322.119 340.906 321.813 343.151 321.457C345.069 338.587 346.217 357.386 346.043 377.467C338.277 365.266 321.071 341.533 307.777 347.197C303.169 349.158 300.965 353.027 301.729 357.813C302.683 363.779 308.317 370.903 316.798 376.871C325.539 383.022 335.799 386.946 345.837 388.057C345.726 391.506 345.557 395.003 345.361 398.522H264.662C264.527 398.223 264.385 397.925 264.253 397.627C266.329 397.273 268.357 395.75 269.603 391.827C273.043 381.023 261.187 382.175 261.187 382.175C259.963 379.942 258.125 379.133 256.467 378.913C254.095 372.721 252.002 366.77 250.175 361.167C249.326 358.563 248.521 355.998 247.755 353.473C249.807 354.167 256.998 356.386 258.021 353.726C259.215 350.618 256.147 348.459 256.147 348.459C256.147 348.459 262.775 348.777 265.905 342.489C269.034 336.202 262.138 335.351 262.138 335.351C256.818 327.615 251.813 336.354 251.813 336.354C247.161 329.527 243.678 334.781 242.921 336.117C241.305 329.761 239.966 323.845 238.857 318.471C240.329 318.251 242.997 317.854 247.869 317.126C258.691 315.511 246.643 307.942 246.643 307.942C246.643 307.942 262.857 307.259 257.705 296.561C252.551 285.861 243.11 296.463 243.11 296.463C236.617 295.923 237.497 300.617 236.143 303.882C235.506 300.018 235.038 296.758 234.701 294.193C236.069 288.323 238.947 279.734 244.17 279.051C252.162 278.009 246.042 263.539 235.858 265.329C235.858 265.329 237.119 254.041 230.379 253.946C225.635 253.882 224.223 257.561 223.802 259.749C222.385 258.178 220.735 256.847 218.842 256.13C216.187 255.125 213.39 255.409 210.754 256.949C207.053 259.113 205.417 263.689 206.374 269.189C207.142 273.603 209.749 278.621 213.862 280.803C212.343 282.194 211.423 284.159 211.338 286.506C211.19 290.611 213.825 295.587 218.491 296.81C219.299 297.022 220.302 297.154 221.453 297.042C223.501 296.843 226.018 295.857 228.731 293.185C228.837 294.033 228.959 294.979 229.102 296.022C228.882 296.195 228.95 296.454 229.202 296.755C230.921 309.158 235.165 333.791 244.618 362.815C247.817 372.634 251.799 383.489 256.709 394.877L256.81 395.271C256.81 395.271 256.846 395.299 256.914 395.35C257.369 396.401 257.845 397.462 258.317 398.522H244.906C244.855 398.45 244.807 398.382 244.757 398.311C245.171 398.013 245.599 397.693 246.05 397.319C251.915 392.473 244.857 389.679 244.857 389.679C244.857 389.679 246.249 379.886 240.302 380.266C237.759 380.429 236.207 382.373 235.258 384.542C228.107 373.989 220.635 362.553 212.771 350.126C212.865 348.437 212.486 346.93 212.486 346.93C218.414 346.354 215.634 335.101 215.634 335.101C217.803 328.601 208.702 323.365 205.005 327.089C203.377 328.731 202.585 331.091 202.209 333.217C199.479 328.799 196.713 324.289 193.89 319.647C193.965 318.953 193.99 318.202 193.905 317.323C193.905 317.323 200.501 312.023 197.666 307.897C194.831 303.77 187.278 303.009 185.489 307.67C185.489 307.67 180.61 303.655 179.009 306.429C179.009 306.429 180.75 293.545 176.305 293.977C171.859 294.409 166.986 301.987 168.683 304.067C170.382 306.146 177.121 306.238 177.337 308.461C177.553 310.683 171.606 323.975 178.634 324.415C182.455 324.654 186.903 325.371 190.026 324.437C193.089 329.465 196.098 334.367 199.051 339.131C195.585 340.437 190.201 343.275 190.186 348.349C190.165 355.779 203.385 355.282 208.834 354.729C217.155 367.842 225.053 379.878 232.591 390.915C224.615 392.095 225.087 396.873 225.502 398.522H164.969C159.231 388.495 153.202 377.322 146.934 364.845C137.142 332.133 135.227 297.549 134.882 282.526C136.389 285.433 138.501 288.518 140.882 289.079C145.582 290.187 142.771 277.435 142.771 277.435C142.771 277.435 152.673 273.158 152.882 269.513C153.093 265.867 147.898 267.585 147.898 267.585C146.111 251.717 137.01 260.226 137.01 260.226C137.01 260.226 131.641 255.177 128.655 256.85C125.67 258.522 126.55 264.533 126.55 264.533C126.55 264.533 121.363 265.051 118.366 268.914C115.37 272.777 120.306 276.845 120.306 276.845C120.306 276.845 116.022 278.994 118.098 285.697C119.458 290.091 125.238 285.002 129.057 280.977C129.246 291.681 130.247 314.769 135.047 340.186C134.393 338.773 133.741 337.375 133.083 335.937C115.827 298.193 101.923 260.67 94.7075 233.121C95.6915 231.703 96.6968 230.299 97.7061 228.901M105.29 218.837C106.851 220.858 107.666 222.515 107.543 223.459C107.471 224.005 106.663 224.429 105.997 224.686C104.394 225.309 102.758 225.046 101.157 224.217C102.515 222.409 103.891 220.613 105.29 218.837ZM120.775 200.674C123.674 201.33 125.967 202.242 127.033 203.479C127.505 204.029 127.63 204.567 127.463 205.338C127.277 206.195 126.806 206.799 125.937 207.294C123.521 208.665 119.049 208.705 114.15 208.094C116.321 205.586 118.523 203.107 120.775 200.674M340.309 57.2608C363.125 57.2608 381.891 74.8835 383.743 97.2315C369.125 95.0968 354.181 93.9742 338.979 93.9742C324.707 93.9742 310.665 94.9715 296.902 96.8568C298.931 74.6875 317.618 57.2608 340.309 57.2608M325.937 26.4648C325.937 18.5395 332.385 12.0928 340.309 12.0928C348.231 12.0928 354.679 18.5395 354.679 26.4648C354.679 34.3888 348.231 40.8355 340.309 40.8355C332.385 40.8355 325.937 34.3888 325.937 26.4648ZM452.341 127.555L446.097 126.685C444.094 126.405 438.621 124.965 437.778 121.971C442.693 123.709 447.549 125.571 452.341 127.555ZM459.946 133.13L459.497 136.535C459.407 137.218 459.271 138.051 459.097 138.978C459.007 139.234 458.951 139.501 458.938 139.779C457.461 147.01 453.607 159.011 446.997 158.219C446.289 158.134 445.401 157.925 445.197 157.414C444.363 155.331 447.557 148.147 453.641 140.774L459.946 133.13ZM459.153 130.467L449.831 136.497C442.667 141.131 429.154 147.894 423.366 146.321C422.401 146.057 421.794 145.589 421.401 144.803C421.049 144.099 421.035 143.547 421.358 142.897C423.554 138.467 437.227 134.093 446.235 132.401L458.366 130.122C458.629 130.238 458.89 130.351 459.153 130.467M447.997 316.409C456.742 300.43 470.157 280.094 477.897 278.611C477.966 278.599 478.034 278.587 478.099 278.578C478.983 278.45 479.654 278.651 480.307 279.231C481.27 280.087 482.467 281.617 481.718 285.003C479.679 294.241 464.597 309.065 447.997 316.409M519.997 312.509C521.402 310.07 523.518 307.451 525.154 307.061C525.362 307.007 525.517 307.003 525.697 307.047C525.922 307.098 526.179 307.231 526.458 307.446C527.071 307.917 527.159 309.346 526.673 310.925V310.926C525.891 313.47 524.106 315.254 522.933 315.322C522.041 315.41 520.994 314.333 519.997 312.509M520.914 323.262C521.258 323.371 521.389 323.411 521.339 323.933C521.27 324.759 520.547 325.85 519.813 325.946C519.273 326.037 517.851 325.311 516.286 322.33C516.967 322.358 517.826 322.462 518.885 322.702C519.497 322.841 520.173 323.025 520.914 323.262M579.951 398.522H571.733C565.605 388.994 563.053 378.746 564.975 373.814C565.694 371.965 566.911 371.293 569.043 371.565C569.517 371.626 569.975 371.761 570.418 371.966C575.57 374.349 578.629 386.107 579.951 398.522M609.875 356.786C596.47 351.187 584.345 342.315 584.826 333.467C585.027 329.81 587.803 327.073 592.442 325.955C593.798 325.63 595.038 325.741 596.267 326.31C596.641 326.482 597.011 326.695 597.386 326.953C604.019 331.514 608.145 347.327 609.875 356.786M464.194 222.699C466.142 219.09 469.046 213.969 472.442 208.815C482.958 192.865 489.379 189.75 492.27 189.313C492.285 189.31 492.301 189.309 492.315 189.306C494.102 189.049 495.603 189.642 497.038 191.17C498.313 192.531 497.723 195.003 497.003 196.839C493.525 205.714 479.027 219.078 464.194 222.699M461.747 229.066C479.154 226.565 497.538 211.351 502.398 198.954C504.934 192.489 502.775 188.818 501.263 187.207C498.537 184.298 495.159 183.043 491.491 183.571C491.462 183.575 491.433 183.578 491.402 183.583C481.038 185.153 469.757 201.415 462.829 213.229C465.606 186.682 466.534 163.263 465.342 146.433C469.487 151.865 475.393 158.214 481.123 159.507C482.313 159.775 483.475 159.829 484.585 159.669C485.863 159.486 487.073 159.021 488.173 158.282C492.607 155.303 493.198 151.967 492.91 149.695C492.831 149.073 492.665 148.454 492.434 147.842C542.373 178.062 582.758 222.551 607.882 275.622C603.786 272.341 599.797 270.409 596.399 271.051C592.13 271.861 589.471 274.907 589.285 279.202C588.986 286.138 595.994 297.887 615.231 306.782C617.15 307.669 619.202 308.523 621.379 309.343C622.727 313.427 624.002 317.545 625.177 321.705C624.547 323.633 623.918 325.561 623.239 327.534C620.667 335.017 617.67 343.038 614.197 351.465C613.754 349.434 613.215 347.193 612.569 344.863C609.395 333.459 605.299 325.965 600.39 322.587C597.535 320.622 594.442 320.023 591.203 320.803C584.23 322.482 579.869 327.107 579.537 333.178C579.115 340.866 585.526 351.483 604.002 360.026C605.725 360.822 607.594 361.593 609.531 362.349C604.401 373.883 598.366 386.042 591.331 398.522H585.291C583.945 384.889 580.174 367.646 569.717 366.31C565.173 365.726 561.646 367.762 560.037 371.891C558.031 377.041 559.183 385.266 563.118 393.897C563.839 395.479 564.654 397.015 565.514 398.522H506.358C505.707 397.794 504.834 397.174 503.686 396.693C509.597 389.997 515.931 382.571 522.545 374.59C526.162 375.37 532.035 376.159 535.119 374.001C536.262 373.201 536.93 372.086 537.103 370.687C537.461 367.791 535.709 365.046 532.145 362.863C534.293 360.209 536.477 357.49 538.693 354.709C540.437 355.27 542.557 355.354 544.617 355.437C545.235 355.462 545.847 355.486 546.439 355.522C547.866 355.633 548.77 355.018 549.255 354.499C551.053 352.566 550.505 348.506 550.103 345.545C549.991 344.711 549.849 343.677 549.849 343.509C550.103 343.235 551.461 343.021 552.27 342.895C553.761 342.662 555.299 342.422 556.186 341.582C556.69 341.102 557.183 340.122 556.653 338.194C556.037 335.959 553.926 332.53 551.159 331.903C550.402 331.729 549.695 331.897 549.093 332.382C547.473 333.686 547.003 337.343 546.871 339.697C545.777 339.547 544.519 339.994 543.633 340.415C542.994 339.347 541.913 338.574 540.518 338.227C538.051 337.617 535.213 338.446 533.606 340.247C531.363 342.766 533.341 346.341 535.098 348.342C535.047 348.659 535.011 348.977 534.993 349.307C533.142 351.631 531.323 353.905 529.523 356.137C529.245 355.062 528.807 354.135 528.218 353.371C526.891 351.645 524.318 351.251 521.801 352.39C519.083 353.623 517.613 356.069 517.99 358.675C517.561 359.879 516.205 364.137 517.571 366.698C517.902 367.322 518.378 367.81 518.969 368.142C518.879 368.491 518.795 368.911 518.743 369.366C512.529 376.89 506.523 383.963 500.869 390.418C499.913 388.663 498.575 388.031 497.518 387.829C496.314 387.595 495.222 387.858 494.363 388.581C492.63 390.034 492.261 392.991 492.187 394.422C491.269 394.791 489.825 395.594 489.395 397.07C489.259 397.541 489.242 398.026 489.335 398.522H485.055L485.159 398.346C489.313 391.305 493.215 383.927 496.758 376.421C506.127 356.559 511.423 339.291 513.774 330.622C513.975 330.362 514.078 330.083 514.086 329.793C515.337 330.959 516.687 331.711 518.119 332.035C518.95 332.223 519.791 332.265 520.626 332.154C524.595 331.635 527.277 327.85 527.579 324.493C527.713 323.037 527.442 321.683 526.803 320.513C529.874 318.795 531.854 315.386 532.659 312.767C533.975 308.483 533.082 304.638 530.271 302.481C528.27 300.941 525.997 300.421 523.681 300.971C522.713 301.206 521.741 301.641 520.778 302.271C520.103 300.021 518.423 298.619 515.986 298.343C514.697 298.189 513.494 298.558 512.55 299.391C510.735 300.989 510.153 304.027 509.966 305.747C507.467 305.398 504.91 306.238 502.935 308.121C500.982 309.986 500.041 312.433 500.537 314.355C500.889 315.723 501.929 316.695 503.463 317.098C505.734 317.691 507.413 321.553 508.075 327.699C507.882 328.423 507.667 329.222 507.427 330.094C506.903 328.882 505.829 327.858 503.458 327.635C502.577 326.497 499.918 323.449 496.75 323.449H496.685C494.734 323.474 493.017 324.61 491.586 326.823C490.25 328.881 489.961 330.798 490.717 332.522C491.734 334.839 494.487 336.175 496.577 336.881C495.057 337.887 493.485 339.329 493.614 340.93C493.779 342.993 496.467 343.747 497.349 343.995L502.614 345.477C501.547 348.551 500.418 351.641 499.241 354.697C498.687 354.066 497.946 353.513 496.986 353.35C495.793 353.15 494.574 353.593 493.325 354.666C492.623 353.569 491.414 352.157 489.686 351.865C488.206 351.621 486.729 352.239 485.294 353.722C484.439 353.801 482.707 354.138 481.715 355.525C480.925 356.638 480.834 358.091 481.445 359.849C482.585 363.113 484.974 364.563 486.721 365.205C486.11 366.042 485.71 367.165 486.038 368.506C486.555 370.615 489.607 370.771 492.665 370.363C492.139 371.514 491.602 372.675 491.047 373.847C489.233 377.689 487.279 381.577 485.238 385.413C483.879 385.563 482.702 386.171 481.782 387.195C480.469 387.014 477.485 386.846 475.621 388.641C474.243 389.962 473.793 391.987 474.283 394.657C474.615 396.455 475.235 397.679 475.95 398.522H419.755C428.781 376.873 436.729 351.221 443.365 324.335C463.107 318.171 484.381 299.819 487.378 286.253C488.673 280.382 486.339 276.838 484.153 274.898C482.102 273.077 479.542 272.387 476.809 272.922C470.274 274.171 462.191 282.433 452.099 298.174C450.614 300.489 449.206 302.789 447.894 304.993C447.895 304.954 447.898 304.915 447.899 304.878C453.514 279.319 457.938 253.303 460.99 229.149C461.243 229.118 461.493 229.103 461.747 229.066ZM487.161 150.422C487.206 150.777 487.342 151.859 484.942 153.471C484.203 153.967 483.419 154.086 482.402 153.855C476.877 152.61 468.782 142.009 464.923 135.541C479.519 141.345 486.818 147.687 487.161 150.422M613.981 289.403C615.789 293.787 617.494 298.221 619.097 302.706C600.474 294.57 594.381 284.058 594.579 279.43C594.658 277.613 595.549 276.605 597.386 276.258C597.846 276.17 598.789 276.167 600.365 276.895C602.965 278.098 607.29 281.307 613.981 289.403M627.63 331.026C627.634 331.039 627.637 331.053 627.641 331.067C627.627 331.082 627.614 331.094 627.602 331.109C627.611 331.081 627.621 331.053 627.63 331.026M630.571 344.167C627.837 344.882 625.271 345.426 623.162 345.817C625.275 342.489 627.27 339.729 629.141 337.423C629.642 339.662 630.121 341.909 630.571 344.167ZM633.322 360.315C627.766 361.466 620.21 364.671 610.779 372.367C614.103 365.274 617.103 358.381 619.805 351.745C622.055 351.429 626.491 350.711 631.575 349.397C632.229 353.013 632.801 356.655 633.322 360.315M635.346 378.439C626.537 382.221 616.922 380.169 611.743 378.49C620.689 370.721 628.315 366.894 634.035 365.578C634.563 369.838 634.999 374.126 635.346 378.439M636.283 398.522H597.41C600.502 392.947 603.403 387.438 606.103 382.027C608.889 383.278 622.529 388.806 635.73 384.018C636.025 388.825 636.214 393.659 636.283 398.522M647.965 398.522H647.378C645.517 249.298 537.165 125.271 394.971 99.0848C394.181 74.4421 377.031 53.8621 354.041 47.8968C361.097 43.3608 365.79 35.4582 365.79 26.4648C365.79 12.4128 354.359 0.982165 340.309 0.982165C326.257 0.982165 314.826 12.4128 314.826 26.4648C314.826 35.4582 319.521 43.3608 326.577 47.8968C303.737 53.8221 286.658 74.1701 285.658 98.5968C142.151 123.711 32.4568 248.365 30.5834 398.522H20.2021C9.48213 398.522 0.758118 407.243 0.758118 417.966C0.758118 428.687 9.48213 437.41 20.2021 437.41H647.965C658.685 437.41 667.407 428.687 667.407 417.966C667.407 407.243 658.685 398.522 647.965 398.522" fill="#FBF3E0"/>
</svg>
