<svg width="989" height="773" viewBox="0 0 989 773" fill="none" xmlns="http://www.w3.org/2000/svg">
<path d="M67.3789 742.184C66.4336 747.664 64.8029 752.436 62.4896 756.496C60.1749 760.56 57.0336 763.772 53.0669 766.133C49.0976 768.496 44.1376 769.676 38.1856 769.676H34.2189C32.2349 769.676 30.6509 769.464 29.4709 769.038C28.2896 768.613 27.3922 767.929 26.7789 766.984C26.1629 766.041 25.7616 764.786 25.5736 763.228C25.3829 761.669 25.2909 759.805 25.2909 757.63V691.593C25.2909 689.421 25.3829 687.553 25.5736 685.994C25.7616 684.434 26.1629 683.16 26.7789 682.168C27.3922 681.176 28.2896 680.468 29.4709 680.044C30.6509 679.617 32.2349 679.405 34.2189 679.405H38.1856C44.1376 679.405 49.0976 680.588 53.0669 682.948C57.0336 685.31 60.1749 688.545 62.4896 692.656C64.8029 696.765 66.4336 701.56 67.3789 707.04C68.3216 712.52 68.7949 718.377 68.7949 724.61C68.7949 730.846 68.3216 736.706 67.3789 742.184ZM72.9069 690.6C68.9376 686.257 64.0482 682.83 58.2389 680.325C52.4282 677.824 45.7429 676.57 38.1856 676.57H0.0655823V679.405C2.04958 679.405 3.62958 679.617 4.81225 680.044C5.99358 680.468 6.88958 681.176 7.50558 682.168C8.11892 683.16 8.51892 684.434 8.70958 685.994C8.89892 687.553 8.99358 689.421 8.99358 691.593V757.63C8.99358 759.805 8.89892 761.669 8.70958 763.228C8.51892 764.786 8.11892 766.041 7.50558 766.984C6.88958 767.929 5.99358 768.613 4.81225 769.038C3.62958 769.464 2.04958 769.676 0.0655823 769.676V772.51H38.1856C45.7429 772.51 52.4282 771.26 58.2389 768.756C64.0482 766.253 68.9376 762.852 72.9069 758.552C76.8736 754.254 79.8962 749.198 81.9749 743.388C84.0522 737.578 85.0922 731.321 85.0922 724.61C85.0922 718 84.0522 711.765 81.9749 705.905C79.8962 700.048 76.8736 694.946 72.9069 690.6" fill="#FBF3E0"/>
<path d="M114.286 685.973C114.476 684.449 114.874 683.189 115.492 682.189C116.105 681.189 116.98 680.477 118.113 680.047C119.246 679.619 120.806 679.405 122.789 679.405H138.094C140.738 679.405 143.006 679.854 144.897 680.751C146.786 681.65 148.345 682.806 149.573 684.223C150.8 685.641 151.721 687.222 152.336 688.97C152.949 690.721 153.352 692.443 153.541 694.143H156.801C156.422 691.121 156.092 688.167 155.809 685.285C155.526 682.405 155.242 679.501 154.958 676.57H88.7784V679.405C90.7624 679.405 92.3424 679.619 93.5264 680.046C94.705 680.473 95.6024 681.158 96.217 682.106C96.8317 683.055 97.2317 684.309 97.4237 685.873C97.6104 687.437 97.7064 689.31 97.7064 691.489V757.877C97.7064 760.057 97.6104 761.906 97.4237 763.421C97.2317 764.938 96.8317 766.167 96.217 767.115C95.6024 768.063 94.705 768.753 93.5264 769.177C92.3424 769.605 90.7624 769.818 88.7784 769.818V772.653H154.958C155.242 769.723 155.526 766.819 155.809 763.937C156.092 761.057 156.422 758.105 156.801 755.079H153.541C153.352 756.779 152.949 758.505 152.336 760.253C151.721 762.001 150.8 763.582 149.573 764.999C148.345 766.417 146.786 767.574 144.897 768.471C143.006 769.37 140.738 769.818 138.094 769.818H122.789C120.806 769.818 119.246 769.605 118.113 769.177C116.98 768.753 116.105 768.066 115.492 767.118C114.874 766.17 114.476 764.939 114.286 763.423C114.096 761.909 114.002 760.059 114.002 757.878V723.485C114.002 722.822 114.238 722.23 114.712 721.709C115.184 721.187 115.797 720.927 116.554 720.927H120.806C123.641 720.927 125.978 721.234 127.82 721.847C129.662 722.463 131.08 723.289 132.072 724.329C133.064 725.369 133.748 726.619 134.126 728.083C134.502 729.55 134.693 731.13 134.693 732.831H137.953V706.189H134.693C134.693 707.889 134.502 709.447 134.126 710.865C133.748 712.282 133.064 713.535 132.072 714.619C131.08 715.707 129.662 716.557 127.82 717.17C125.978 717.786 123.641 718.093 120.806 718.093H116.554C115.797 718.093 115.184 717.831 114.712 717.309C114.238 716.786 114.002 716.19 114.002 715.522V691.539C114.002 689.35 114.096 687.497 114.286 685.973" fill="#FBF3E0"/>
<path d="M262.872 759.969C262.256 761.718 261.336 763.298 260.11 764.717C258.879 766.133 257.32 767.291 255.432 768.187C253.542 769.087 251.274 769.534 248.63 769.534H233.467C231.483 769.534 229.9 769.322 228.72 768.895C227.538 768.471 226.64 767.786 226.027 766.841C225.411 765.898 225.011 764.645 224.822 763.086C224.631 761.527 224.539 759.663 224.539 757.489V691.309C224.539 689.137 224.631 687.294 224.822 685.782C225.011 684.273 225.411 683.018 226.027 682.026C226.64 681.034 227.538 680.326 228.72 679.901C229.9 679.475 231.483 679.263 233.467 679.263V676.429H199.314V679.263C201.298 679.263 202.879 679.475 204.062 679.901C205.242 680.326 206.138 681.034 206.754 682.026C207.367 683.018 207.768 684.273 207.958 685.782C208.147 687.294 208.242 689.137 208.242 691.309V757.489C208.242 759.663 208.147 761.527 207.958 763.086C207.768 764.645 207.367 765.898 206.754 766.841C206.138 767.786 205.242 768.471 204.062 768.895C202.879 769.322 201.298 769.534 199.314 769.534V772.369H265.495L267.336 754.795H264.076C263.886 756.497 263.486 758.221 262.872 759.969Z" fill="#FBF3E0"/>
<path d="M323.099 737.507C322.579 738.169 321.799 738.641 320.762 738.924L296.67 745.303C295.252 745.68 294.495 745.655 294.403 745.231C294.307 744.805 294.354 744.311 294.543 743.743L308.715 703.639C309.186 702.22 309.778 701.489 310.487 701.441C311.195 701.395 311.834 702.128 312.4 703.639L322.887 733.823C323.547 735.619 323.618 736.847 323.099 737.507ZM350.238 764.852L319.06 676.287H314.808L283.632 764.423C282.875 766.696 281.695 768.117 280.09 768.684C278.482 769.252 276.547 769.535 274.279 769.535V772.368H293.835V769.535C292.228 769.535 290.952 769.369 290.01 769.037C289.064 768.708 288.426 768.117 288.095 767.267C287.763 766.417 287.742 765.212 288.024 763.653C288.308 762.095 288.875 760.039 289.726 757.488L291.71 751.963C292.183 750.641 292.772 749.791 293.48 749.412C294.19 749.035 295.062 748.703 296.103 748.42L321.328 741.617C323.879 741.049 325.578 741.712 326.43 743.6L331.247 757.488C332.948 762.307 333.536 765.52 333.018 767.125C332.499 768.732 330.255 769.535 326.288 769.535V772.368H360.439V769.535C357.699 769.535 355.503 769.3 353.85 768.825C352.196 768.352 350.992 767.028 350.238 764.852Z" fill="#FBF3E0"/>
<path d="M464.88 758.693C463.747 761.669 462.118 763.986 459.992 765.637C457.866 767.291 455.22 768.379 452.056 768.895C448.89 769.417 445.276 769.675 441.215 769.675H436.964C434.979 769.675 433.42 769.463 432.287 769.038C431.154 768.613 430.279 767.929 429.666 766.983C429.05 766.041 428.648 764.786 428.462 763.227C428.27 761.669 428.178 759.805 428.178 757.63V731.838C428.178 729.949 429.075 728.77 430.87 728.295L435.546 727.019C439.324 725.982 443.079 725.653 446.812 726.029C450.543 726.406 453.874 727.445 456.803 729.146C459.731 730.846 462.094 733.185 463.888 736.162C465.683 739.137 466.58 742.705 466.58 746.861C466.58 751.774 466.015 755.718 464.88 758.693ZM428.178 691.593C428.178 689.515 428.247 687.721 428.39 686.207C428.531 684.697 428.887 683.442 429.454 682.451C430.019 681.459 430.847 680.729 431.932 680.255C433.019 679.783 434.506 679.499 436.396 679.405C442.726 679.595 447.638 681.389 451.135 684.79C454.63 688.191 456.379 693.671 456.379 701.227C456.379 704.537 455.787 707.463 454.607 710.014C453.424 712.566 451.864 714.762 449.93 716.605C447.992 718.446 445.771 720.005 443.27 721.281C440.766 722.555 438.239 723.526 435.687 724.186L430.87 725.461C430.112 725.653 429.474 725.555 428.958 725.177C428.436 724.802 428.178 724.281 428.178 723.618V691.593ZM474.8 727.233C472.25 724.635 469.155 722.769 465.519 721.635C461.88 720.501 457.842 720.501 453.403 721.635C455.858 720.975 458.242 720.005 460.559 718.73C462.872 717.454 464.927 715.849 466.723 713.911C468.518 711.977 469.959 709.731 471.046 707.181C472.13 704.629 472.675 701.795 472.675 698.677C472.675 693.387 471.683 689.254 469.699 686.277C467.715 683.302 465.07 681.106 461.763 679.689C458.455 678.271 454.652 677.398 450.355 677.066C446.055 676.737 441.639 676.57 437.104 676.57H402.952V679.405C404.936 679.405 406.518 679.617 407.7 680.043C408.88 680.467 409.778 681.175 410.392 682.167C411.007 683.161 411.407 684.435 411.596 685.995C411.786 687.554 411.88 689.421 411.88 691.593V757.63C411.88 759.805 411.786 761.669 411.596 763.227C411.407 764.786 411.007 766.041 410.392 766.983C409.778 767.929 408.88 768.613 407.7 769.038C406.518 769.463 404.936 769.675 402.952 769.675V772.51H441.215C447.167 772.51 452.694 772.322 457.796 771.943C462.898 771.566 467.312 770.526 471.046 768.826C474.776 767.125 477.682 764.553 479.76 761.103C481.839 757.655 482.879 752.907 482.879 746.861C482.879 743.366 482.171 739.87 480.752 736.374C479.336 732.879 477.352 729.831 474.8 727.233" fill="#FBF3E0"/>
<path d="M530.139 723.69C527.634 724.966 525.058 725.935 522.415 726.595L517.739 727.87C516.982 728.061 516.343 727.965 515.826 727.587C515.305 727.211 515.047 726.69 515.047 726.029V691.309C515.047 687.153 515.494 684.153 516.391 682.31C517.289 680.467 519.533 679.453 523.125 679.263C525.013 679.358 527.139 679.737 529.501 680.397C531.861 681.058 534.058 682.193 536.091 683.798C538.121 685.406 539.823 687.625 541.193 690.458C542.561 693.293 543.247 696.885 543.247 701.227C543.247 705.197 542.657 708.622 541.477 711.502C540.293 714.385 538.734 716.818 536.799 718.801C534.862 720.785 532.641 722.414 530.139 723.69ZM558.977 760.889L539.705 725.037C542.445 724.094 545.018 722.959 547.427 721.635C549.835 720.314 551.939 718.709 553.734 716.818C555.527 714.929 556.945 712.707 557.986 710.157C559.023 707.606 559.545 704.629 559.545 701.227C559.545 697.071 558.954 693.553 557.778 690.67C556.599 687.79 554.997 685.451 552.97 683.657C550.942 681.863 548.657 680.467 546.111 679.475C543.565 678.483 540.95 677.753 538.266 677.278C535.579 676.807 532.893 676.549 530.207 676.499C527.519 676.453 525.093 676.429 522.927 676.429H489.963V679.263C491.947 679.263 493.506 679.475 494.641 679.901C495.774 680.326 496.646 681.034 497.262 682.026C497.875 683.018 498.275 684.273 498.466 685.782C498.654 687.294 498.749 689.137 498.749 691.309V757.489C498.749 759.662 498.654 761.527 498.466 763.086C498.275 764.645 497.875 765.898 497.262 766.841C496.646 767.786 495.774 768.471 494.641 768.895C493.506 769.322 491.947 769.534 489.963 769.534V772.369H523.975V769.534C521.991 769.534 520.406 769.322 519.226 768.895C518.045 768.471 517.147 767.786 516.534 766.841C515.919 765.898 515.518 764.645 515.33 763.086C515.139 761.527 515.047 759.662 515.047 757.489V734.389C515.047 732.405 515.942 731.178 517.729 730.705L522.39 729.429C523.237 729.241 524.11 729.099 525.003 729.003C525.898 728.911 526.629 729.383 527.194 730.421L548.242 769.534C548.713 770.291 549.373 770.951 550.221 771.518C551.065 772.085 552.009 772.369 553.046 772.369H571.165V769.534C568.99 769.534 566.913 768.991 564.929 767.905C562.945 766.819 560.961 764.481 558.977 760.889Z" fill="#FBF3E0"/>
<path d="M631.251 679.405C632.857 679.405 634.178 679.548 635.221 679.832C636.258 680.116 637.083 680.685 637.699 681.536C638.313 682.385 638.737 683.616 638.974 685.224C639.21 686.833 639.33 688.916 639.33 691.47V751.65C639.33 755.341 638.569 758.37 637.055 760.734C635.538 763.1 633.571 764.946 631.157 766.27C628.737 767.596 626.014 768.517 622.983 769.038C619.949 769.558 616.965 769.818 614.029 769.818C609.954 769.818 606.518 769.512 603.723 768.896C600.927 768.28 598.654 767.265 596.899 765.845C595.146 764.426 593.869 762.557 593.062 760.238C592.257 757.921 591.855 755.057 591.855 751.65V691.47C591.855 689.294 591.947 687.425 592.138 685.864C592.327 684.304 592.706 683.049 593.273 682.101C593.838 681.156 594.711 680.47 595.894 680.045C597.074 679.62 598.658 679.405 600.642 679.405V676.57H566.63V679.405C568.614 679.405 570.195 679.62 571.378 680.045C572.557 680.47 573.454 681.156 574.07 682.101C574.683 683.049 575.085 684.304 575.275 685.864C575.463 687.425 575.558 689.294 575.558 691.469V751.648C575.558 756.189 576.597 759.83 578.675 762.574C580.753 765.321 583.541 767.448 587.037 768.964C590.531 770.478 594.618 771.47 599.295 771.942C603.971 772.416 608.907 772.653 614.105 772.653C618.071 772.653 621.779 772.297 625.229 771.589C628.675 770.88 631.723 769.72 634.37 768.11C637.013 766.502 639.093 764.35 640.605 761.654C642.114 758.957 642.871 755.622 642.871 751.648V691.469C642.871 688.916 642.99 686.833 643.226 685.224C643.461 683.616 643.863 682.385 644.43 681.536C644.998 680.685 645.798 680.116 646.839 679.832C647.878 679.548 649.199 679.405 650.807 679.405V676.57H631.251V679.405Z" fill="#FBF3E0"/>
<path d="M730.875 679.547C734.086 679.547 735.572 680.634 735.339 682.806C735.102 684.98 733.471 687.958 730.45 691.735L712.168 716.11C711.79 716.676 711.318 716.936 710.751 716.888C710.183 716.842 709.711 716.582 709.335 716.11L691.194 691.308C690.062 689.608 689.091 688.05 688.291 686.632C687.486 685.215 687.014 683.988 686.872 682.948C686.731 681.908 687.036 681.083 687.792 680.467C688.548 679.854 689.919 679.547 691.903 679.547V676.712H657.892V679.547C659.876 679.547 661.599 679.784 663.066 680.255C664.528 680.73 665.9 681.46 667.175 682.452C668.45 683.443 669.7 684.672 670.93 686.135C672.156 687.602 673.48 689.326 674.899 691.308L693.887 717.242C694.642 718.187 695.21 719.25 695.587 720.431C695.964 721.614 696.202 723.147 696.296 725.036V757.771C696.296 759.946 696.202 761.788 696.014 763.298C695.823 764.811 695.422 766.063 694.808 767.055C694.192 768.046 693.295 768.755 692.116 769.18C690.934 769.604 689.351 769.818 687.368 769.818V772.652H721.379V769.818C719.396 769.818 717.836 769.604 716.703 769.18C715.57 768.755 714.695 768.046 714.082 767.055C713.466 766.063 713.066 764.811 712.878 763.298C712.686 761.788 712.594 759.946 712.594 757.771V725.036C712.594 723.147 712.806 721.614 713.232 720.431C713.656 719.25 714.244 718.187 715.003 717.242L734.7 690.884C736.306 688.9 737.747 687.199 739.022 685.783C740.298 684.364 741.524 683.208 742.707 682.31C743.888 681.412 745.091 680.73 746.32 680.255C747.547 679.784 748.918 679.547 750.431 679.547V676.712H730.875V679.547Z" fill="#FBF3E0"/>
<path d="M782.878 685.935C783.067 684.426 783.444 683.168 784.011 682.194C784.575 681.187 785.458 680.464 786.652 680.055C787.815 679.616 789.388 679.395 791.399 679.395H806.682C809.322 679.395 811.616 679.867 813.503 680.747C815.39 681.659 816.93 682.791 818.156 684.238C819.383 685.652 820.326 687.226 820.923 688.986C821.552 690.715 821.96 692.444 822.15 694.142H825.387C825.106 691.123 824.791 688.167 824.476 685.275C824.163 682.539 823.879 679.772 823.596 676.974C823.596 676.85 823.566 676.691 823.566 676.566H807.498H800.235H757.506V679.395C759.486 679.395 761.058 679.616 762.19 680.055C763.322 680.464 764.202 681.187 764.799 682.162C765.428 683.168 765.838 684.426 766.026 685.935C766.215 687.444 766.31 689.3 766.31 691.47V757.623C766.31 759.794 766.215 761.647 766.026 763.219C765.838 764.792 765.428 766.05 764.799 767.055C764.202 768.031 763.322 768.752 762.19 769.192C761.058 769.603 759.486 769.823 757.506 769.823V772.652H823.566C823.848 769.728 824.13 766.804 824.476 763.879C824.791 760.924 825.106 757.968 825.387 754.951H822.15C821.96 756.648 821.552 758.378 820.923 760.106C820.326 761.867 819.383 763.471 818.156 764.918C816.93 766.395 815.39 767.59 813.503 768.47C811.616 769.382 809.322 769.823 806.682 769.823H791.399C789.388 769.823 787.815 769.571 786.652 769.099C785.458 768.627 784.575 767.936 784.011 766.994C783.444 766.05 783.067 764.792 782.878 763.219C782.69 761.679 782.595 759.794 782.595 757.623V723.476C782.595 722.816 782.848 722.188 783.382 721.623C783.886 721.056 784.546 720.774 785.299 720.774H789.388C792.248 720.774 794.575 721.087 796.43 721.716C798.254 722.314 799.699 723.162 800.738 724.263C801.775 725.332 802.499 726.59 802.876 728.004C803.254 729.419 803.442 730.991 803.442 732.69H806.682V706.058H803.442C803.442 707.755 803.254 709.296 802.876 710.711C802.499 712.127 801.775 713.384 800.738 714.484C799.699 715.554 798.254 716.403 796.43 717.031C794.575 717.659 792.248 717.944 789.388 717.944H785.299C784.546 717.944 783.886 717.691 783.382 717.158C782.848 716.654 782.595 716.056 782.595 715.396V691.5C782.595 689.331 782.69 687.476 782.878 685.935" fill="#FBF3E0"/>
<path d="M785.142 660.247C783.915 660.342 782.659 660.625 781.4 661.097C780.112 661.601 778.887 662.261 777.723 663.109C776.528 663.958 775.615 664.901 774.955 665.969L789.542 672.083C789.668 672.137 789.803 672.165 789.942 672.165H799.132C800.108 672.165 800.542 670.939 799.782 670.326L787.972 660.781C787.311 660.342 786.368 660.153 785.142 660.247Z" fill="#FBF3E0"/>
<path d="M872.655 723.69C870.151 724.966 867.575 725.935 864.931 726.595L860.255 727.87C859.499 728.061 858.86 727.965 858.343 727.587C857.822 727.211 857.564 726.69 857.564 726.029V691.309C857.564 687.153 858.011 684.153 858.908 682.31C859.806 680.467 862.048 679.453 865.64 679.263C867.528 679.358 869.655 679.737 872.016 680.397C874.378 681.058 876.574 682.193 878.607 683.798C880.636 685.406 882.339 687.625 883.708 690.458C885.076 693.293 885.763 696.885 885.763 701.227C885.763 705.197 885.172 708.622 883.992 711.502C882.81 714.385 881.251 716.818 879.315 718.801C877.378 720.785 875.156 722.414 872.655 723.69ZM901.494 760.889L882.222 725.037C884.96 724.094 887.535 722.959 889.944 721.635C892.352 720.314 894.455 718.709 896.25 716.818C898.044 714.929 899.46 712.707 900.502 710.157C901.54 707.606 902.06 704.629 902.06 701.227C902.06 697.071 901.471 693.553 900.294 690.67C899.116 687.79 897.512 685.451 895.487 683.657C893.459 681.863 891.174 680.467 888.628 679.475C886.082 678.483 883.467 677.753 880.782 677.278C878.096 676.807 875.408 676.549 872.724 676.499C870.035 676.453 867.608 676.429 865.444 676.429H832.479V679.263C834.463 679.263 836.022 679.475 837.156 679.901C838.29 680.326 839.163 681.034 839.779 682.026C840.392 683.018 840.792 684.273 840.982 685.782C841.171 687.294 841.266 689.137 841.266 691.309V757.489C841.266 759.662 841.171 761.527 840.982 763.086C840.792 764.645 840.392 765.898 839.779 766.841C839.163 767.786 838.29 768.471 837.156 768.895C836.022 769.322 834.463 769.534 832.479 769.534V772.369H866.491V769.534C864.507 769.534 862.923 769.322 861.743 768.895C860.562 768.471 859.664 767.786 859.051 766.841C858.435 765.898 858.034 764.645 857.847 763.086C857.655 761.527 857.564 759.662 857.564 757.489V734.389C857.564 732.405 858.458 731.178 860.246 730.705L864.907 729.429C865.754 729.241 866.627 729.099 867.52 729.003C868.415 728.911 869.146 729.383 869.711 730.421L890.759 769.534C891.228 770.291 891.888 770.951 892.736 771.518C893.582 772.085 894.526 772.369 895.563 772.369H913.682V769.534C911.507 769.534 909.43 768.991 907.446 767.905C905.462 766.819 903.478 764.481 901.494 760.889" fill="#FBF3E0"/>
<path d="M984.466 760.253C983.851 762.002 982.93 763.582 981.703 764.999C980.474 766.417 978.915 767.574 977.027 768.471C975.135 769.37 972.869 769.818 970.223 769.818H954.919C952.935 769.818 951.377 769.605 950.243 769.177C949.109 768.753 948.234 768.066 947.621 767.118C947.005 766.17 946.605 764.939 946.417 763.423C946.226 761.909 946.133 760.059 946.133 757.878V723.485C946.133 722.822 946.367 722.23 946.842 721.709C947.314 721.187 947.926 720.927 948.683 720.927H952.935C955.77 720.927 958.107 721.234 959.95 721.847C961.793 722.463 963.21 723.289 964.202 724.329C965.194 725.369 965.878 726.619 966.257 728.083C966.633 729.55 966.823 731.13 966.823 732.831H970.082V706.189H966.823C966.823 707.89 966.633 709.447 966.257 710.865C965.878 712.282 965.194 713.535 964.202 714.619C963.21 715.707 961.793 716.558 959.95 717.17C958.107 717.786 955.77 718.093 952.935 718.093H948.683C947.926 718.093 947.314 717.831 946.842 717.309C946.367 716.786 946.133 716.19 946.133 715.522V691.539C946.133 689.35 946.226 687.497 946.417 685.973C946.605 684.449 947.005 683.189 947.621 682.189C948.234 681.189 949.109 680.477 950.243 680.047C951.377 679.619 952.935 679.405 954.919 679.405H970.223C972.869 679.405 975.135 679.854 977.027 680.751C978.915 681.65 980.474 682.806 981.703 684.225C982.93 685.641 983.851 687.223 984.466 688.97C985.079 690.721 985.481 692.443 985.67 694.143H988.93C988.55 691.121 988.221 688.169 987.938 685.285C987.655 682.405 987.371 679.501 987.087 676.57H920.908V679.405C922.892 679.405 924.474 679.619 925.657 680.046C926.836 680.473 927.733 681.158 928.349 682.106C928.961 683.055 929.362 684.309 929.551 685.873C929.741 687.437 929.835 689.31 929.835 691.489V757.877C929.835 760.058 929.741 761.906 929.551 763.421C929.362 764.938 928.961 766.169 928.349 767.115C927.733 768.063 926.836 768.753 925.657 769.177C924.474 769.605 922.892 769.818 920.908 769.818V772.653H987.087C987.371 769.725 987.655 766.819 987.938 763.937C988.221 761.057 988.55 758.105 988.93 755.079H985.67C985.481 756.781 985.079 758.505 984.466 760.253Z" fill="#FBF3E0"/>
<path d="M105.134 624.379H100.109C99.8168 627 99.1968 629.66 98.2528 632.352C97.3035 635.05 95.8835 637.487 93.9915 639.672C92.0981 641.856 89.6928 643.642 86.7821 645.024C83.8661 646.411 80.3715 647.1 76.2941 647.1H52.9168C49.8595 647.1 47.4168 646.774 45.5981 646.118C43.7741 645.463 42.3915 644.407 41.4461 642.95C40.4981 641.495 39.8795 639.563 39.5901 637.16C39.2968 634.756 39.1541 631.882 39.1541 628.53V526.499C39.1541 523.15 39.2968 520.31 39.5901 517.978C39.8795 515.651 40.4981 513.718 41.4461 512.188C42.3915 510.66 43.7741 509.567 45.5981 508.911C47.4168 508.255 49.8595 507.928 52.9168 507.928V503.559H0.263458V507.928C3.32212 507.928 5.75946 508.255 7.58212 508.911C9.40212 509.567 10.7835 510.66 11.7328 512.188C12.6795 513.718 13.2968 515.651 13.5915 517.978C13.8808 520.31 14.0275 523.15 14.0275 526.499V628.53C14.0275 631.882 13.8808 634.756 13.5915 637.16C13.2968 639.563 12.6795 641.495 11.7328 642.95C10.7835 644.407 9.40212 645.463 7.58212 646.118C5.75946 646.774 3.32212 647.1 0.263458 647.1V651.47H102.293L105.134 624.379Z" fill="#FBF3E0"/>
<path d="M196.24 599.909L159.1 609.741C156.913 610.325 155.745 610.286 155.601 609.631C155.456 608.977 155.526 608.211 155.821 607.337L177.669 545.507C178.396 543.322 179.308 542.195 180.4 542.121C181.492 542.049 182.476 543.178 183.349 545.507L199.517 592.043C200.534 594.813 200.644 596.707 199.844 597.723C199.042 598.745 197.841 599.473 196.24 599.909ZM204.98 607.118L212.408 628.53C215.029 635.958 215.937 640.911 215.14 643.386C214.336 645.865 210.878 647.101 204.761 647.101V651.47H257.416V647.101C253.188 647.101 249.801 646.739 247.256 646.007C244.705 645.277 242.848 643.237 241.684 639.881L193.617 503.339H187.064L138.997 639.221C137.829 642.723 136.01 644.917 133.536 645.789C131.057 646.663 128.073 647.101 124.578 647.101V651.47H154.728V647.101C152.249 647.101 150.282 646.847 148.829 646.335C147.373 645.827 146.388 644.917 145.878 643.605C145.368 642.294 145.333 640.437 145.77 638.034C146.209 635.63 147.081 632.462 148.392 628.53L151.45 620.009C152.178 617.971 153.09 616.659 154.181 616.077C155.274 615.495 156.62 614.985 158.224 614.547L197.113 604.059C201.045 603.186 203.668 604.207 204.98 607.118" fill="#FBF3E0"/>
<path d="M396.148 637.487C395.854 639.819 395.274 641.748 394.399 643.278C393.526 644.806 392.176 645.9 390.358 646.555C388.534 647.21 386.098 647.538 383.038 647.538V651.907H435.255V647.538C432.196 647.538 429.755 647.21 427.936 646.555C426.114 645.9 424.77 644.806 423.895 643.278C423.02 641.748 422.436 639.819 422.147 637.487C421.852 635.16 421.71 632.319 421.71 628.967V527.155C421.71 523.806 421.852 520.928 422.147 518.524C422.436 516.122 423.02 514.155 423.895 512.626C424.77 511.096 426.114 510.004 427.936 509.348C429.755 508.692 432.196 508.366 435.255 508.366H448.802C452.876 508.366 456.374 509.059 459.287 510.442C462.2 511.827 464.603 513.608 466.499 515.794C468.39 517.978 469.847 520.419 470.868 523.114C471.886 525.81 472.54 528.466 472.835 531.087H477.859C477.423 526.574 476.948 522.058 476.439 517.542C475.927 513.028 475.455 508.512 475.019 503.996H343.275C342.839 508.512 342.363 513.028 341.854 517.542C341.343 522.058 340.872 526.574 340.435 531.087H345.459C345.75 528.466 346.367 525.81 347.316 523.114C348.263 520.419 349.682 517.978 351.576 515.794C353.468 513.608 355.871 511.827 358.787 510.442C361.699 509.059 365.195 508.366 369.274 508.366H383.038C386.098 508.366 388.534 508.692 390.358 509.348C392.176 510.004 393.526 511.096 394.399 512.626C395.274 514.155 395.854 516.122 396.148 518.524C396.438 520.928 396.583 523.806 396.583 527.155V628.967C396.583 632.319 396.438 635.16 396.148 637.487Z" fill="#FBF3E0"/>
<path d="M495.555 607.337L517.404 545.508C518.131 543.321 519.041 542.196 520.135 542.121C521.225 542.049 522.209 543.179 523.083 545.508L539.251 592.043C540.268 594.812 540.377 596.707 539.579 597.724C538.776 598.745 537.576 599.473 535.973 599.909L498.832 609.741C496.645 610.324 495.479 610.287 495.336 609.632C495.191 608.976 495.26 608.211 495.555 607.337ZM473.269 645.789C470.791 646.664 467.807 647.1 464.311 647.1V651.471H494.463V647.1C491.983 647.1 490.017 646.848 488.564 646.336C487.105 645.828 486.123 644.917 485.613 643.605C485.101 642.295 485.067 640.437 485.504 638.033C485.941 635.631 486.815 632.463 488.127 628.531L491.185 620.009C491.913 617.972 492.824 616.66 493.916 616.077C495.008 615.496 496.355 614.984 497.957 614.547L536.848 604.06C540.78 603.187 543.403 604.207 544.713 607.119L552.141 628.531C554.763 635.959 555.672 640.912 554.872 643.387C554.071 645.865 550.612 647.1 544.493 647.1V651.471H597.148V647.1C592.921 647.1 589.535 646.74 586.989 646.008C584.439 645.277 582.583 643.237 581.417 639.88L533.352 503.34H526.799L478.732 639.221C477.564 642.724 475.745 644.917 473.269 645.789Z" fill="#FBF3E0"/>
<path d="M662.035 646.336C660.287 645.681 658.939 644.627 657.994 643.168C657.046 641.713 656.426 639.781 656.137 637.379C655.842 634.975 655.699 632.1 655.699 628.749V588.984C655.699 586.073 657.082 584.253 659.85 583.524L667.062 581.556C672.885 579.956 678.674 579.447 684.43 580.028C690.182 580.611 695.317 582.212 699.834 584.833C704.346 587.456 707.989 591.06 710.758 595.648C713.522 600.237 714.909 605.736 714.909 612.144C714.909 619.719 714.034 625.8 712.286 630.387C710.538 634.975 708.026 638.545 704.748 641.092C701.471 643.641 697.393 645.319 692.514 646.117C687.631 646.919 682.061 647.319 675.799 647.319H669.246C666.186 647.319 663.785 646.992 662.035 646.336ZM655.699 526.936C655.699 523.735 655.809 520.965 656.027 518.635C656.246 516.307 656.793 514.373 657.667 512.844C658.541 511.313 659.813 510.189 661.49 509.457C663.163 508.731 665.455 508.295 668.373 508.147C678.129 508.44 685.703 511.205 691.094 516.449C696.481 521.693 699.177 530.141 699.177 541.793C699.177 546.893 698.267 551.407 696.447 555.339C694.623 559.271 692.221 562.657 689.235 565.497C686.25 568.339 682.826 570.743 678.967 572.708C675.107 574.675 671.213 576.169 667.281 577.187L659.85 579.153C658.683 579.447 657.701 579.3 656.901 578.716C656.099 578.136 655.699 577.333 655.699 576.312V526.936ZM701.362 650.815C709.227 650.235 716.034 648.631 721.79 646.008C727.543 643.387 732.021 639.42 735.227 634.101C738.43 628.787 740.033 621.467 740.033 612.144C740.033 606.756 738.942 601.365 736.757 595.975C734.57 590.588 731.512 585.892 727.579 581.884C723.647 577.88 718.875 575.003 713.27 573.253C707.661 571.507 701.434 571.507 694.59 573.253C698.375 572.237 702.052 570.743 705.622 568.776C709.19 566.808 712.358 564.333 715.126 561.347C717.893 558.364 720.115 554.901 721.79 550.969C723.463 547.036 724.302 542.667 724.302 537.86C724.302 529.704 722.774 523.332 719.715 518.744C716.657 514.155 712.577 510.768 707.481 508.584C702.379 506.399 696.518 505.055 689.893 504.541C683.262 504.032 676.454 503.777 669.463 503.777H616.81V508.147C619.869 508.147 622.306 508.475 624.129 509.131C625.95 509.785 627.331 510.877 628.281 512.408C629.227 513.936 629.843 515.903 630.138 518.307C630.427 520.709 630.574 523.587 630.574 526.936V628.749C630.574 632.1 630.427 634.975 630.138 637.379C629.843 639.781 629.227 641.713 628.281 643.168C627.331 644.627 625.95 645.681 624.129 646.336C622.306 646.992 619.869 647.319 616.81 647.319V651.689H675.799C684.977 651.689 693.497 651.399 701.362 650.815" fill="#FBF3E0"/>
<path d="M864.568 624.379H859.541C859.25 627 858.63 629.66 857.686 632.352C856.737 635.05 855.317 637.487 853.425 639.672C851.53 641.856 849.126 643.642 846.214 645.024C843.3 646.411 839.804 647.1 835.728 647.1H812.35C809.292 647.1 806.85 646.774 805.032 646.118C803.206 645.463 801.825 644.407 800.88 642.95C799.93 641.495 799.313 639.563 799.024 637.16C798.729 634.756 798.586 631.882 798.586 628.53V526.499C798.586 523.15 798.729 520.31 799.024 517.978C799.313 515.651 799.93 513.718 800.88 512.188C801.825 510.66 803.206 509.567 805.032 508.911C806.85 508.255 809.292 507.928 812.35 507.928V503.559H759.697V507.928C762.756 507.928 765.193 508.255 767.016 508.911C768.836 509.567 770.217 510.66 771.166 512.188C772.113 513.718 772.73 515.651 773.025 517.978C773.314 520.31 773.461 523.15 773.461 526.499V628.53C773.461 631.882 773.314 634.756 773.025 637.16C772.73 639.563 772.113 641.495 771.166 642.95C770.217 644.407 768.836 645.463 767.016 646.118C765.193 646.774 762.756 647.1 759.697 647.1V651.47H861.726L864.568 624.379Z" fill="#FBF3E0"/>
<path d="M987.352 638.471C987.789 634.03 988.298 629.479 988.882 624.815H983.857C983.564 627.438 982.945 630.097 982 632.79C981.05 635.487 979.63 637.925 977.74 640.11C975.845 642.294 973.441 644.079 970.53 645.462C967.613 646.847 964.118 647.538 960.042 647.538H936.446C933.388 647.538 930.985 647.21 929.236 646.551C927.49 645.895 926.141 644.837 925.194 643.377C924.246 641.915 923.628 640.017 923.338 637.678C923.045 635.343 922.901 632.494 922.901 629.131V576.105C922.901 575.083 923.262 574.171 923.993 573.367C924.72 572.563 925.666 572.162 926.833 572.162H933.388C937.758 572.162 941.362 572.635 944.202 573.582C947.044 574.531 949.228 575.805 950.757 577.405C952.286 579.009 953.341 580.939 953.925 583.195C954.505 585.454 954.8 587.891 954.8 590.514H959.824V549.441H954.8C954.8 552.061 954.505 554.465 953.925 556.65C953.341 558.834 952.286 560.767 950.757 562.439C949.228 564.114 947.044 565.426 944.202 566.373C941.362 567.322 937.758 567.791 933.388 567.791H926.833C925.666 567.791 924.72 567.389 923.993 566.583C923.262 565.777 922.901 564.859 922.901 563.83V526.854C922.901 523.482 923.045 520.621 923.338 518.273C923.628 515.923 924.246 513.981 925.194 512.438C926.141 510.898 927.49 509.799 929.236 509.137C930.985 508.478 933.388 508.147 936.446 508.147H960.042C964.118 508.147 967.613 508.839 970.53 510.222C973.441 511.609 975.845 513.39 977.74 515.575C979.63 517.759 981.05 520.201 982 522.894C982.945 525.591 983.564 528.247 983.857 530.869H988.882C988.298 526.209 987.789 521.659 987.352 517.214C986.916 512.773 986.478 508.294 986.042 503.777H884.012V508.147C887.069 508.147 889.508 508.478 891.33 509.133C893.15 509.791 894.533 510.85 895.482 512.311C896.428 513.774 897.046 515.709 897.338 518.118C897.627 520.529 897.774 523.417 897.774 526.775V629.127C897.774 632.49 897.627 635.339 897.338 637.675C897.046 640.013 896.428 641.911 895.482 643.373C894.533 644.834 893.15 645.895 891.33 646.551C889.508 647.21 887.069 647.538 884.012 647.538V651.907H986.042C986.478 647.394 986.916 642.915 987.352 638.471Z" fill="#FBF3E0"/>
<path d="M807.965 426.298H180.202C175.606 426.298 171.869 422.561 171.869 417.966C171.869 413.371 175.606 409.633 180.202 409.633H807.965C812.559 409.633 816.297 413.371 816.297 417.966C816.297 422.561 812.559 426.298 807.965 426.298ZM202.114 386.515C206.381 390.402 210.53 394.123 214.55 397.653C213.89 397.93 213.333 398.222 212.841 398.522H201.695C201.747 394.498 201.903 390.499 202.114 386.515M205.939 352.13C209.437 358.693 213.537 365.867 218.305 373.374C222.754 380.381 228.022 388.037 234.117 395.923L234.274 396.21C234.274 396.21 234.309 396.225 234.373 396.25C234.957 397.003 235.573 397.765 236.174 398.522H227.126C228.666 394.863 223.853 394.242 223.853 394.242C223.853 394.242 222.982 386.339 218.429 387.822C216.481 388.457 215.659 390.279 215.354 392.158C211.205 388.486 206.905 384.598 202.49 380.546C203.191 370.941 204.342 361.461 205.939 352.13ZM304.293 378.173C286.391 375.179 268.101 364.563 263.831 356.121C262.267 353.026 263.046 351.249 263.767 350.179C264.257 349.455 264.855 349.094 265.745 348.998C265.81 348.991 265.878 348.986 265.947 348.981C273.815 348.494 291.855 364.865 304.293 378.173M208.638 338.45C209.507 338.083 210.51 337.661 211.715 337.153C217.851 334.563 213.099 331.937 210.429 330.814C210.531 330.399 210.625 329.981 210.73 329.566C213.941 328.181 219.905 324.686 215.267 319.178C214.825 318.653 214.389 318.229 213.958 317.875C217.541 305.814 221.842 294.061 226.863 282.69C236.662 291.486 254.445 298.589 269.294 296.978C269.549 296.95 269.795 296.902 270.049 296.869C278.999 319.511 289.743 343.614 301.526 366.978C301.538 367.015 301.549 367.051 301.559 367.089C299.742 365.279 297.807 363.401 295.795 361.527C282.109 348.783 272.229 342.787 265.59 343.198C262.81 343.359 260.501 344.663 258.967 346.937C257.329 349.358 255.947 353.371 258.661 358.735C264.931 371.134 290.094 383.631 310.75 384.702C313.262 389.382 315.822 393.974 318.399 398.522H242.139C241.606 397.867 241.061 397.211 240.541 396.558C242.086 395.867 243.361 394.277 243.549 390.974C244.069 381.877 235.07 385.139 235.07 385.139C233.67 383.646 232.077 383.382 230.743 383.542C227.659 379.195 224.842 374.979 222.302 370.982C221.121 369.125 219.982 367.287 218.882 365.474C220.617 365.605 226.659 365.897 226.926 363.622C227.234 360.963 224.414 359.895 224.414 359.895C224.414 359.895 229.639 358.819 230.821 353.299C232.001 347.779 226.462 348.493 226.462 348.493C220.775 343.533 218.623 351.335 218.623 351.335C213.639 346.949 211.977 351.734 211.654 352.926C210.089 350.062 208.649 347.317 207.313 344.695C207.726 342.603 208.181 340.526 208.638 338.45M234.475 266.762C238.466 268.106 244.654 271.614 253.909 280.015C258.478 284.165 262.561 288.403 265.343 291.417C251.731 291.573 236.507 284.161 229.406 277.073C231.029 273.597 232.723 270.163 234.475 266.762M250.395 239.49C253.897 252.155 258.618 266.541 264.315 281.905C256.921 274.447 246.398 265.105 237.19 261.623C241.281 254.045 245.682 246.657 250.395 239.49ZM385.986 278.214C386.731 277.47 387.486 276.614 388.242 275.575C388.546 276.597 388.846 277.631 389.137 278.666C388.231 278.45 387.185 278.291 385.986 278.214ZM372.082 268.195C371.675 265.866 371.882 263.001 373.678 261.951C374.345 261.562 374.909 261.39 375.391 261.343C375.961 261.289 376.417 261.407 376.786 261.547C379.769 262.673 382.61 267.789 384.049 271.474C381.814 274.807 379.553 276.43 377.621 276.07C375.205 275.618 372.77 272.159 372.082 268.195M379.015 284.501C380.119 284.297 381.121 284.157 382.027 284.069C385.022 283.777 386.981 284.05 388.199 284.403C384.805 290.063 381.777 291.681 379.959 291.205C378.211 290.747 377.063 288.471 377.129 286.717C377.189 285.053 378.167 284.658 379.015 284.501M501.802 381.578C483.979 377.853 468.727 364.885 467.45 356.899C467.107 354.755 467.883 353.449 470.046 352.527C470.526 352.323 471.034 352.198 471.565 352.147C479.517 351.375 492.782 367.17 501.802 381.578M500.402 316.017C484.659 318.143 468.317 316.475 463.882 307.861C462.05 304.299 463.157 300.183 466.917 296.565C468.014 295.509 469.245 294.927 470.719 294.785C471.166 294.742 471.635 294.738 472.131 294.773C480.911 295.41 493.542 308.05 500.402 316.017ZM486.782 258.71C459.765 263.967 445.846 256.453 443.218 251.489C442.287 249.731 442.573 248.287 444.113 246.945C444.498 246.607 445.387 246.083 447.274 245.901C450.774 245.561 457.709 246.394 471.219 251.771C477.043 254.09 482.621 256.679 486.782 258.71M472.415 210.431L472.267 211.033C455.405 215.339 439.474 210.542 433.966 204.666C431.069 201.574 432.113 199.423 432.457 198.717C432.657 198.307 433.027 197.794 434.147 197.457C434.589 197.323 435.078 197.231 435.611 197.179C443.271 196.437 459.989 203.774 472.415 210.431ZM468.766 192.951C458.585 190.261 442.133 180.002 439.075 172.385C438.275 170.389 438.591 169.081 440.165 167.867C440.851 167.339 441.581 167.039 442.393 166.961C442.894 166.911 443.427 166.947 444.002 167.063C451.891 168.653 462.75 183.461 468.766 192.951M469.007 178.087C453.818 144.263 457.145 131.009 461.475 128.733C461.894 128.513 462.331 128.389 462.771 128.346C464.569 128.171 466.415 129.355 467.291 130.935C470.369 136.489 470.103 159.573 469.007 178.087M482.881 193.185C489.221 171.558 498.041 151.89 503.765 151.334C503.946 151.317 504.125 151.318 504.301 151.339C505.502 151.487 505.655 151.947 505.777 152.317C507.737 158.226 496.445 177.698 482.881 193.185ZM492.975 233.973C497.266 223.67 506.111 205.475 513.478 202.387C513.977 202.181 514.403 202.077 514.771 202.041C515.423 201.978 515.886 202.126 516.214 202.27C518.917 203.463 518.154 207.583 517.459 209.934C515.805 215.531 511.469 222.031 506.141 226.894C503.374 229.419 498.407 233.23 492.975 233.973ZM506.875 298.326C507.77 273.443 515.273 268.19 517.701 267.146C518.286 266.894 518.885 266.741 519.481 266.682C521.11 266.523 522.715 267.087 523.993 268.315C525.49 269.754 526.682 272.35 525.541 275.319C522.143 284.163 512.666 293.317 506.875 298.326M514.159 335.462C520.689 316.133 529.549 307.782 535.45 306.551C535.706 306.498 535.979 306.454 536.262 306.426C537.457 306.31 538.83 306.497 539.762 307.61C541.217 309.351 541.163 312.813 539.621 316.645C534.493 329.386 521.145 333.926 514.159 335.462M522.905 398.522H514.803C521.505 387.207 530.462 375.159 535.657 374.655C536.266 374.573 536.998 374.686 537.867 375.785C539.937 378.409 539.79 381.759 537.437 385.746C534.487 390.737 528.835 395.443 522.905 398.522M575.523 381.958C571.597 380.121 569.811 374.854 569.473 370.027C568.991 363.194 571.313 357.747 573.698 357.133C574.053 357.041 574.377 356.977 574.666 356.934C576.519 356.667 577.117 357.311 577.333 357.543C580.286 360.723 578.17 373.106 575.523 381.958ZM257.706 228.901C261.839 231.382 265.435 231.121 268.097 230.087C271.949 228.591 273.047 226.063 273.287 224.207C273.707 220.99 271.713 217.426 269.022 214.194C269.262 213.902 269.494 213.603 269.735 213.311C276.523 214.502 284.189 214.951 288.797 212.333C291.093 211.029 292.59 209.034 293.125 206.566C293.681 204.01 293.091 201.634 291.421 199.695C290.002 198.05 287.815 196.838 285.246 195.937C339.341 139.95 415.162 105.085 498.979 105.085C531.453 105.085 562.721 110.329 591.995 119.997C591.903 120.467 591.858 120.955 591.874 121.463C591.978 124.729 593.725 127.143 596.061 128.871C588.51 131.031 578.921 134.774 576.167 140.321C575.031 142.613 575.049 145.061 576.221 147.399C577.353 149.657 579.298 151.217 581.846 151.91C587.406 153.425 595.57 150.533 602.173 147.378C599.95 151.591 598.459 156.171 599.817 159.565C600.51 161.302 602.202 163.479 606.305 163.971C610.254 164.446 615.586 163.079 619.942 154.815C620.737 183.525 616.509 227.485 608.374 272.71C608.094 274.269 607.809 275.785 607.526 277.315C605.866 251.501 601.106 228.887 598.631 218.471C603.33 221.423 610.193 224.918 610.421 220.323C610.767 213.315 606.083 212.297 606.083 212.297C606.083 212.297 609.855 207.131 605.993 204.133C602.133 201.135 596.978 201.919 596.978 201.919C596.978 201.919 596.339 195.879 593.033 194.999C589.725 194.119 585.777 200.343 585.777 200.343C585.777 200.343 574.847 194.361 577.055 210.175C577.055 210.175 571.598 209.801 572.706 213.279C573.814 216.759 584.467 218.445 584.467 218.445C584.467 218.445 584.911 231.495 589.187 229.255C591.355 228.121 592.635 224.607 593.373 221.418C596.767 236.057 603.498 270.034 602.131 304.153C596.223 331.238 589.958 353.214 584.014 370.769C584.971 364.126 584.905 357.185 581.579 353.603C580.049 351.951 577.187 350.245 572.251 351.521C565.873 353.166 563.117 362.281 563.691 370.434C564.411 380.631 569.557 387.493 577.126 388.342L577.61 388.397C576.194 392.033 574.815 395.399 573.482 398.522H533.506C537.166 395.629 540.317 392.261 542.425 388.693C546.015 382.615 546.013 376.757 542.417 372.197C539.986 369.115 537.101 368.695 535.107 368.887C535.103 368.887 535.102 368.887 535.098 368.887C529.614 369.421 523.109 375.367 515.211 387.069C513.858 389.073 512.591 391.059 511.445 392.925C512.203 374.955 511.866 357.875 510.794 341.915C514.799 341.482 537.187 338.209 544.997 318.809C547.41 312.813 547.121 307.375 544.206 303.891C541.903 301.139 538.282 300.043 534.269 300.879C530.621 301.641 518.895 305.973 509.867 330.218C509.082 321.69 508.103 313.529 506.985 305.774C511.542 302.167 526.137 289.923 530.949 277.397C532.726 272.77 531.573 267.566 528.009 264.138C524.581 260.843 519.755 259.958 515.41 261.823C511.554 263.482 505.882 268.282 502.935 281.995C502.783 281.226 502.635 280.442 502.482 279.685C499.578 265.309 496.155 251.891 492.613 239.819C492.738 239.809 492.863 239.818 492.99 239.805C506.587 238.485 519.626 223.047 523.015 211.575C525.998 201.486 520.887 197.999 518.553 196.97C516.278 195.966 513.75 195.993 511.239 197.045C502.282 200.798 493.593 218.046 489.085 228.323C486.151 219.183 483.226 211.042 480.534 204.114C488.245 196.489 496.326 186.371 502.417 176.635C507.642 168.281 513.422 156.965 511.277 150.494C510.355 147.713 508.127 145.971 505.003 145.587C497.646 144.693 490.673 153.813 483.062 174.307C480.361 181.582 478.11 188.943 476.566 194.361C475.681 192.289 474.843 190.398 474.065 188.698C474.723 180.737 477.937 138.191 472.359 128.127C469.599 123.149 463.509 121.121 458.779 123.603C455.803 125.167 450.993 129.79 452.209 143.175C452.914 150.945 455.521 160.473 459.963 171.614C454.477 165.705 449.511 162.265 445.15 161.383C442.006 160.749 439.062 161.405 436.631 163.277C432.959 166.105 431.919 170.105 433.699 174.542C438.021 185.313 460.806 198.581 472.323 199.362C472.882 200.707 473.465 202.134 474.077 203.665L473.841 204.626C462.435 198.589 442.07 189.013 432.47 191.909C430.057 192.638 428.251 194.117 427.246 196.183C425.255 200.278 426.163 204.814 429.738 208.629C436.105 215.421 450.015 219.619 464.885 218.175C469.387 217.738 473.973 216.747 478.469 215.19C482.294 225.719 486.565 238.833 490.579 254.075C477.163 247.353 449.174 234.845 440.305 242.578C436.723 245.701 435.898 250.045 438.098 254.199C441.649 260.909 454.755 268.122 477.821 265.881C482.438 265.433 487.485 264.575 492.905 263.289C494.275 268.959 495.602 274.869 496.843 281.033C498.551 289.514 500.159 298.739 501.539 308.609C499.997 306.937 498.253 305.121 496.354 303.281C487.057 294.274 479.05 289.467 472.553 288.994C468.771 288.719 465.525 289.862 462.899 292.389C457.247 297.826 455.69 304.602 458.73 310.513C462.585 317.998 474.498 324.471 496.653 322.321C498.717 322.119 500.906 321.813 503.151 321.457C505.069 338.587 506.217 357.386 506.043 377.467C498.277 365.266 481.071 341.533 467.777 347.197C463.169 349.158 460.965 353.027 461.729 357.813C462.683 363.779 468.317 370.903 476.798 376.871C485.539 383.022 495.799 386.946 505.837 388.057C505.726 391.506 505.557 395.003 505.361 398.522H424.662C424.527 398.223 424.385 397.925 424.253 397.627C426.329 397.273 428.357 395.75 429.603 391.827C433.043 381.023 421.187 382.175 421.187 382.175C419.963 379.942 418.125 379.133 416.467 378.913C414.095 372.721 412.002 366.77 410.175 361.167C409.326 358.563 408.521 355.998 407.755 353.473C409.807 354.167 416.998 356.386 418.021 353.726C419.215 350.618 416.147 348.459 416.147 348.459C416.147 348.459 422.775 348.777 425.905 342.489C429.034 336.202 422.138 335.351 422.138 335.351C416.818 327.615 411.813 336.354 411.813 336.354C407.161 329.527 403.678 334.781 402.921 336.117C401.305 329.761 399.966 323.845 398.857 318.471C400.329 318.251 402.997 317.854 407.869 317.126C418.691 315.511 406.643 307.942 406.643 307.942C406.643 307.942 422.857 307.259 417.705 296.561C412.551 285.861 403.11 296.463 403.11 296.463C396.617 295.923 397.497 300.617 396.143 303.882C395.506 300.018 395.038 296.758 394.701 294.193C396.069 288.323 398.947 279.734 404.17 279.051C412.162 278.009 406.042 263.539 395.858 265.329C395.858 265.329 397.119 254.041 390.379 253.946C385.635 253.882 384.223 257.561 383.802 259.749C382.385 258.178 380.735 256.847 378.842 256.13C376.187 255.125 373.39 255.409 370.754 256.949C367.053 259.113 365.417 263.689 366.374 269.189C367.142 273.603 369.749 278.621 373.862 280.803C372.343 282.194 371.423 284.159 371.338 286.506C371.19 290.611 373.825 295.587 378.491 296.81C379.299 297.022 380.302 297.154 381.453 297.042C383.501 296.843 386.018 295.857 388.731 293.185C388.837 294.033 388.959 294.979 389.102 296.022C388.882 296.195 388.95 296.454 389.202 296.755C390.921 309.158 395.165 333.791 404.618 362.815C407.817 372.634 411.799 383.489 416.709 394.877L416.81 395.271C416.81 395.271 416.846 395.299 416.914 395.35C417.369 396.401 417.845 397.462 418.317 398.522H404.906C404.855 398.45 404.807 398.382 404.757 398.311C405.171 398.013 405.599 397.693 406.05 397.319C411.915 392.473 404.857 389.679 404.857 389.679C404.857 389.679 406.249 379.886 400.302 380.266C397.759 380.429 396.207 382.373 395.258 384.542C388.107 373.989 380.635 362.553 372.771 350.126C372.865 348.437 372.486 346.93 372.486 346.93C378.414 346.354 375.634 335.101 375.634 335.101C377.803 328.601 368.702 323.365 365.005 327.089C363.377 328.731 362.585 331.091 362.209 333.217C359.479 328.799 356.713 324.289 353.89 319.647C353.965 318.953 353.99 318.202 353.905 317.323C353.905 317.323 360.501 312.023 357.666 307.897C354.831 303.77 347.278 303.009 345.489 307.67C345.489 307.67 340.61 303.655 339.009 306.429C339.009 306.429 340.75 293.545 336.305 293.977C331.859 294.409 326.986 301.987 328.683 304.067C330.382 306.146 337.121 306.238 337.337 308.461C337.553 310.683 331.606 323.975 338.634 324.415C342.455 324.654 346.903 325.371 350.026 324.437C353.089 329.465 356.098 334.367 359.051 339.131C355.585 340.437 350.201 343.275 350.186 348.349C350.165 355.779 363.385 355.282 368.834 354.729C377.155 367.842 385.053 379.878 392.591 390.915C384.615 392.095 385.087 396.873 385.502 398.522H324.969C319.231 388.495 313.202 377.322 306.934 364.845C297.142 332.133 295.227 297.549 294.882 282.526C296.389 285.433 298.501 288.518 300.882 289.079C305.582 290.187 302.771 277.435 302.771 277.435C302.771 277.435 312.673 273.158 312.882 269.513C313.093 265.867 307.898 267.585 307.898 267.585C306.111 251.717 297.01 260.226 297.01 260.226C297.01 260.226 291.641 255.177 288.655 256.85C285.67 258.522 286.55 264.533 286.55 264.533C286.55 264.533 281.363 265.051 278.366 268.914C275.37 272.777 280.306 276.845 280.306 276.845C280.306 276.845 276.022 278.994 278.098 285.697C279.458 290.091 285.238 285.002 289.057 280.977C289.246 291.681 290.247 314.769 295.047 340.186C294.393 338.773 293.741 337.375 293.083 335.937C275.827 298.193 261.923 260.67 254.707 233.121C255.691 231.703 256.697 230.299 257.706 228.901M265.29 218.837C266.851 220.858 267.666 222.515 267.543 223.459C267.471 224.005 266.663 224.429 265.997 224.686C264.394 225.309 262.758 225.046 261.157 224.217C262.515 222.409 263.891 220.613 265.29 218.837ZM280.775 200.674C283.674 201.33 285.967 202.242 287.033 203.479C287.505 204.029 287.63 204.567 287.463 205.338C287.277 206.195 286.806 206.799 285.937 207.294C283.521 208.665 279.049 208.705 274.15 208.094C276.321 205.586 278.523 203.107 280.775 200.674M500.309 57.2608C523.125 57.2608 541.891 74.8835 543.743 97.2315C529.125 95.0968 514.181 93.9742 498.979 93.9742C484.707 93.9742 470.665 94.9715 456.902 96.8568C458.931 74.6875 477.618 57.2608 500.309 57.2608M485.937 26.4648C485.937 18.5395 492.385 12.0928 500.309 12.0928C508.231 12.0928 514.679 18.5395 514.679 26.4648C514.679 34.3888 508.231 40.8355 500.309 40.8355C492.385 40.8355 485.937 34.3888 485.937 26.4648ZM612.341 127.555L606.097 126.685C604.094 126.405 598.621 124.965 597.778 121.971C602.693 123.709 607.549 125.571 612.341 127.555ZM619.946 133.13L619.497 136.535C619.407 137.218 619.271 138.051 619.097 138.978C619.007 139.234 618.951 139.501 618.938 139.779C617.461 147.01 613.607 159.011 606.997 158.219C606.289 158.134 605.401 157.925 605.197 157.414C604.363 155.331 607.557 148.147 613.641 140.774L619.946 133.13ZM619.153 130.467L609.831 136.497C602.667 141.131 589.154 147.894 583.366 146.321C582.401 146.057 581.794 145.589 581.401 144.803C581.049 144.099 581.035 143.547 581.358 142.897C583.554 138.467 597.227 134.093 606.235 132.401L618.366 130.122C618.629 130.238 618.89 130.351 619.153 130.467M607.997 316.409C616.742 300.43 630.157 280.094 637.897 278.611C637.966 278.599 638.034 278.587 638.099 278.578C638.983 278.45 639.654 278.651 640.307 279.231C641.27 280.087 642.467 281.617 641.718 285.003C639.679 294.241 624.597 309.065 607.997 316.409M679.997 312.509C681.402 310.07 683.518 307.451 685.154 307.061C685.362 307.007 685.517 307.003 685.697 307.047C685.922 307.098 686.179 307.231 686.458 307.446C687.071 307.917 687.159 309.346 686.673 310.925V310.926C685.891 313.47 684.106 315.254 682.933 315.322C682.041 315.41 680.994 314.333 679.997 312.509M680.914 323.262C681.258 323.371 681.389 323.411 681.339 323.933C681.27 324.759 680.547 325.85 679.813 325.946C679.273 326.037 677.851 325.311 676.286 322.33C676.967 322.358 677.826 322.462 678.885 322.702C679.497 322.841 680.173 323.025 680.914 323.262M739.951 398.522H731.733C725.605 388.994 723.053 378.746 724.975 373.814C725.694 371.965 726.911 371.293 729.043 371.565C729.517 371.626 729.975 371.761 730.418 371.966C735.57 374.349 738.629 386.107 739.951 398.522M769.875 356.786C756.47 351.187 744.345 342.315 744.826 333.467C745.027 329.81 747.803 327.073 752.442 325.955C753.798 325.63 755.038 325.741 756.267 326.31C756.641 326.482 757.011 326.695 757.386 326.953C764.019 331.514 768.145 347.327 769.875 356.786M624.194 222.699C626.142 219.09 629.046 213.969 632.442 208.815C642.958 192.865 649.379 189.75 652.27 189.313C652.285 189.31 652.301 189.309 652.315 189.306C654.102 189.049 655.603 189.642 657.038 191.17C658.313 192.531 657.723 195.003 657.003 196.839C653.525 205.714 639.027 219.078 624.194 222.699M621.747 229.066C639.154 226.565 657.538 211.351 662.398 198.954C664.934 192.489 662.775 188.818 661.263 187.207C658.537 184.298 655.159 183.043 651.491 183.571C651.462 183.575 651.433 183.578 651.402 183.583C641.038 185.153 629.757 201.415 622.829 213.229C625.606 186.682 626.534 163.263 625.342 146.433C629.487 151.865 635.393 158.214 641.123 159.507C642.313 159.775 643.475 159.829 644.585 159.669C645.863 159.486 647.073 159.021 648.173 158.282C652.607 155.303 653.198 151.967 652.91 149.695C652.831 149.073 652.665 148.454 652.434 147.842C702.373 178.062 742.758 222.551 767.882 275.622C763.786 272.341 759.797 270.409 756.399 271.051C752.13 271.861 749.471 274.907 749.285 279.202C748.986 286.138 755.994 297.887 775.231 306.782C777.15 307.669 779.202 308.523 781.379 309.343C782.727 313.427 784.002 317.545 785.177 321.705C784.547 323.633 783.918 325.561 783.239 327.534C780.667 335.017 777.67 343.038 774.197 351.465C773.754 349.434 773.215 347.193 772.569 344.863C769.395 333.459 765.299 325.965 760.39 322.587C757.535 320.622 754.442 320.023 751.203 320.803C744.23 322.482 739.869 327.107 739.537 333.178C739.115 340.866 745.526 351.483 764.002 360.026C765.725 360.822 767.594 361.593 769.531 362.349C764.401 373.883 758.366 386.042 751.331 398.522H745.291C743.945 384.889 740.174 367.646 729.717 366.31C725.173 365.726 721.646 367.762 720.037 371.891C718.031 377.041 719.183 385.266 723.118 393.897C723.839 395.479 724.654 397.015 725.514 398.522H666.358C665.707 397.794 664.834 397.174 663.686 396.693C669.597 389.997 675.931 382.571 682.545 374.59C686.162 375.37 692.035 376.159 695.119 374.001C696.262 373.201 696.93 372.086 697.103 370.687C697.461 367.791 695.709 365.046 692.145 362.863C694.293 360.209 696.477 357.49 698.693 354.709C700.437 355.27 702.557 355.354 704.617 355.437C705.235 355.462 705.847 355.486 706.439 355.522C707.866 355.633 708.77 355.018 709.255 354.499C711.053 352.566 710.505 348.506 710.103 345.545C709.991 344.711 709.849 343.677 709.849 343.509C710.103 343.235 711.461 343.021 712.27 342.895C713.761 342.662 715.299 342.422 716.186 341.582C716.69 341.102 717.183 340.122 716.653 338.194C716.037 335.959 713.926 332.53 711.159 331.903C710.402 331.729 709.695 331.897 709.093 332.382C707.473 333.686 707.003 337.343 706.871 339.697C705.777 339.547 704.519 339.994 703.633 340.415C702.994 339.347 701.913 338.574 700.518 338.227C698.051 337.617 695.213 338.446 693.606 340.247C691.363 342.766 693.341 346.341 695.098 348.342C695.047 348.659 695.011 348.977 694.993 349.307C693.142 351.631 691.323 353.905 689.523 356.137C689.245 355.062 688.807 354.135 688.218 353.371C686.891 351.645 684.318 351.251 681.801 352.39C679.083 353.623 677.613 356.069 677.99 358.675C677.561 359.879 676.205 364.137 677.571 366.698C677.902 367.322 678.378 367.81 678.969 368.142C678.879 368.491 678.795 368.911 678.743 369.366C672.529 376.89 666.523 383.963 660.869 390.418C659.913 388.663 658.575 388.031 657.518 387.829C656.314 387.595 655.222 387.858 654.363 388.581C652.63 390.034 652.261 392.991 652.187 394.422C651.269 394.791 649.825 395.594 649.395 397.07C649.259 397.541 649.242 398.026 649.335 398.522H645.055L645.159 398.346C649.313 391.305 653.215 383.927 656.758 376.421C666.127 356.559 671.423 339.291 673.774 330.622C673.975 330.362 674.078 330.083 674.086 329.793C675.337 330.959 676.687 331.711 678.119 332.035C678.95 332.223 679.791 332.265 680.626 332.154C684.595 331.635 687.277 327.85 687.579 324.493C687.713 323.037 687.442 321.683 686.803 320.513C689.874 318.795 691.854 315.386 692.659 312.767C693.975 308.483 693.082 304.638 690.271 302.481C688.27 300.941 685.997 300.421 683.681 300.971C682.713 301.206 681.741 301.641 680.778 302.271C680.103 300.021 678.423 298.619 675.986 298.343C674.697 298.189 673.494 298.558 672.55 299.391C670.735 300.989 670.153 304.027 669.966 305.747C667.467 305.398 664.91 306.238 662.935 308.121C660.982 309.986 660.041 312.433 660.537 314.355C660.889 315.723 661.929 316.695 663.463 317.098C665.734 317.691 667.413 321.553 668.075 327.699C667.882 328.423 667.667 329.222 667.427 330.094C666.903 328.882 665.829 327.858 663.458 327.635C662.577 326.497 659.918 323.449 656.75 323.449H656.685C654.734 323.474 653.017 324.61 651.586 326.823C650.25 328.881 649.961 330.798 650.717 332.522C651.734 334.839 654.487 336.175 656.577 336.881C655.057 337.887 653.485 339.329 653.614 340.93C653.779 342.993 656.467 343.747 657.349 343.995L662.614 345.477C661.547 348.551 660.418 351.641 659.241 354.697C658.687 354.066 657.946 353.513 656.986 353.35C655.793 353.15 654.574 353.593 653.325 354.666C652.623 353.569 651.414 352.157 649.686 351.865C648.206 351.621 646.729 352.239 645.294 353.722C644.439 353.801 642.707 354.138 641.715 355.525C640.925 356.638 640.834 358.091 641.445 359.849C642.585 363.113 644.974 364.563 646.721 365.205C646.11 366.042 645.71 367.165 646.038 368.506C646.555 370.615 649.607 370.771 652.665 370.363C652.139 371.514 651.602 372.675 651.047 373.847C649.233 377.689 647.279 381.577 645.238 385.413C643.879 385.563 642.702 386.171 641.782 387.195C640.469 387.014 637.485 386.846 635.621 388.641C634.243 389.962 633.793 391.987 634.283 394.657C634.615 396.455 635.235 397.679 635.95 398.522H579.755C588.781 376.873 596.729 351.221 603.365 324.335C623.107 318.171 644.381 299.819 647.378 286.253C648.673 280.382 646.339 276.838 644.153 274.898C642.102 273.077 639.542 272.387 636.809 272.922C630.274 274.171 622.191 282.433 612.099 298.174C610.614 300.489 609.206 302.789 607.894 304.993C607.895 304.954 607.898 304.915 607.899 304.878C613.514 279.319 617.938 253.303 620.99 229.149C621.243 229.118 621.493 229.103 621.747 229.066ZM647.161 150.422C647.206 150.777 647.342 151.859 644.942 153.471C644.203 153.967 643.419 154.086 642.402 153.855C636.877 152.61 628.782 142.009 624.923 135.541C639.519 141.345 646.818 147.687 647.161 150.422M773.981 289.403C775.789 293.787 777.494 298.221 779.097 302.706C760.474 294.57 754.381 284.058 754.579 279.43C754.658 277.613 755.549 276.605 757.386 276.258C757.846 276.17 758.789 276.167 760.365 276.895C762.965 278.098 767.29 281.307 773.981 289.403M787.63 331.026C787.634 331.039 787.637 331.053 787.641 331.067C787.627 331.082 787.614 331.094 787.602 331.109C787.611 331.081 787.621 331.053 787.63 331.026M790.571 344.167C787.837 344.882 785.271 345.426 783.162 345.817C785.275 342.489 787.27 339.729 789.141 337.423C789.642 339.662 790.121 341.909 790.571 344.167ZM793.322 360.315C787.766 361.466 780.21 364.671 770.779 372.367C774.103 365.274 777.103 358.381 779.805 351.745C782.055 351.429 786.491 350.711 791.575 349.397C792.229 353.013 792.801 356.655 793.322 360.315M795.346 378.439C786.537 382.221 776.922 380.169 771.743 378.49C780.689 370.721 788.315 366.894 794.035 365.578C794.563 369.838 794.999 374.126 795.346 378.439M796.283 398.522H757.41C760.502 392.947 763.403 387.438 766.103 382.027C768.889 383.278 782.529 388.806 795.73 384.018C796.025 388.825 796.214 393.659 796.283 398.522M807.965 398.522H807.378C805.517 249.298 697.165 125.271 554.971 99.0848C554.181 74.4421 537.031 53.8621 514.041 47.8968C521.097 43.3608 525.79 35.4582 525.79 26.4648C525.79 12.4128 514.359 0.982165 500.309 0.982165C486.257 0.982165 474.826 12.4128 474.826 26.4648C474.826 35.4582 479.521 43.3608 486.577 47.8968C463.737 53.8221 446.658 74.1701 445.658 98.5968C302.151 123.711 192.457 248.365 190.583 398.522H180.202C169.482 398.522 160.758 407.243 160.758 417.966C160.758 428.687 169.482 437.41 180.202 437.41H807.965C818.685 437.41 827.407 428.687 827.407 417.966C827.407 407.243 818.685 398.522 807.965 398.522" fill="#FBF3E0"/>
</svg>
