<?xml version="1.0" encoding="UTF-8" standalone="no"?>
<!-- Created with Inkscape (http://www.inkscape.org/) -->

<svg
   version="1.1"
   id="svg2"
   xml:space="preserve"
   width="1333.3333"
   height="1333.3333"
   viewBox="0 0 1333.3333 1333.3333"
   sodipodi:docname="LTDLB_LOGO.ai"
   xmlns:inkscape="http://www.inkscape.org/namespaces/inkscape"
   xmlns:sodipodi="http://sodipodi.sourceforge.net/DTD/sodipodi-0.dtd"
   xmlns="http://www.w3.org/2000/svg"
   xmlns:svg="http://www.w3.org/2000/svg"><defs
     id="defs6"><clipPath
       clipPathUnits="userSpaceOnUse"
       id="clipPath16"><path
         d="M 0,1000 H 1000 V 0 H 0 Z"
         id="path14" /></clipPath></defs><sodipodi:namedview
     id="namedview4"
     pagecolor="#ffffff"
     bordercolor="#666666"
     borderopacity="1.0"
     inkscape:pageshadow="2"
     inkscape:pageopacity="0.0"
     inkscape:pagecheckerboard="0" /><g
     id="g8"
     inkscape:groupmode="layer"
     inkscape:label="LTDLB_LOGO"
     transform="matrix(1.3333333,0,0,-1.3333333,0,1333.3333)"><g
       id="g10"><g
         id="g12"
         clip-path="url(#clipPath16)"><g
           id="g18"
           transform="translate(180.2842,240.8623)"><path
             d="m 0,0 c -0.709,-4.11 -1.932,-7.689 -3.667,-10.734 -1.736,-3.048 -4.092,-5.457 -7.067,-7.228 -2.977,-1.772 -6.697,-2.657 -11.161,-2.657 h -2.975 c -1.488,0 -2.676,0.159 -3.561,0.478 -0.886,0.319 -1.559,0.832 -2.019,1.541 -0.462,0.707 -0.763,1.648 -0.904,2.817 -0.143,1.169 -0.212,2.567 -0.212,4.198 v 49.528 c 0,1.629 0.069,3.03 0.212,4.199 0.141,1.17 0.442,2.126 0.904,2.87 0.46,0.744 1.133,1.275 2.019,1.593 0.885,0.32 2.073,0.479 3.561,0.479 h 2.975 c 4.464,0 8.184,-0.887 11.161,-2.657 2.975,-1.772 5.331,-4.198 7.067,-7.281 C -1.932,34.064 -0.709,30.468 0,26.358 0.707,22.248 1.062,17.855 1.062,13.18 1.062,8.503 0.707,4.108 0,0 m 4.146,38.688 c -2.977,3.257 -6.644,5.827 -11.001,7.706 -4.358,1.876 -9.372,2.816 -15.04,2.816 h -28.59 v -2.126 c 1.488,0 2.673,-0.159 3.56,-0.479 0.886,-0.318 1.558,-0.849 2.02,-1.593 0.46,-0.744 0.76,-1.7 0.903,-2.87 0.142,-1.169 0.213,-2.57 0.213,-4.199 v -49.528 c 0,-1.631 -0.071,-3.029 -0.213,-4.198 -0.143,-1.169 -0.443,-2.11 -0.903,-2.817 -0.462,-0.709 -1.134,-1.222 -2.02,-1.541 -0.887,-0.319 -2.072,-0.478 -3.56,-0.478 v -2.126 h 28.59 c 5.668,0 10.682,0.938 15.04,2.816 4.357,1.877 8.024,4.428 11.001,7.653 2.975,3.223 5.242,7.015 6.801,11.373 1.558,4.357 2.338,9.05 2.338,14.083 0,4.958 -0.78,9.634 -2.338,14.029 -1.559,4.393 -3.826,8.219 -6.801,11.479"
             style="fill:#1a5a5a;fill-opacity:1;fill-rule:nonzero;stroke:none"
             id="path20" /></g><g
           id="g22"
           transform="translate(215.4648,283.0205)"><path
             d="m 0,0 c 0.142,1.143 0.441,2.088 0.904,2.838 0.46,0.75 1.116,1.284 1.966,1.606 0.85,0.321 2.02,0.482 3.507,0.482 h 11.479 c 1.983,0 3.684,-0.337 5.102,-1.01 1.417,-0.674 2.586,-1.541 3.507,-2.604 0.92,-1.063 1.611,-2.249 2.072,-3.56 0.46,-1.313 0.762,-2.605 0.904,-3.88 h 2.445 c -0.284,2.267 -0.532,4.482 -0.744,6.644 -0.212,2.16 -0.425,4.338 -0.638,6.536 H -19.131 V 4.926 c 1.488,0 2.673,-0.161 3.561,-0.481 0.884,-0.32 1.557,-0.834 2.018,-1.545 0.461,-0.712 0.761,-1.652 0.905,-2.825 0.14,-1.173 0.212,-2.578 0.212,-4.212 v -49.791 c 0,-1.635 -0.072,-3.022 -0.212,-4.158 -0.144,-1.138 -0.444,-2.06 -0.905,-2.771 -0.461,-0.711 -1.134,-1.228 -2.018,-1.546 -0.888,-0.321 -2.073,-0.481 -3.561,-0.481 v -2.126 h 49.635 c 0.213,2.197 0.426,4.375 0.638,6.537 0.212,2.16 0.46,4.374 0.744,6.643 h -2.445 c -0.142,-1.275 -0.444,-2.569 -0.904,-3.88 -0.461,-1.311 -1.152,-2.497 -2.072,-3.56 -0.921,-1.063 -2.09,-1.931 -3.507,-2.604 -1.418,-0.674 -3.119,-1.01 -5.102,-1.01 H 6.377 c -1.487,0 -2.657,0.16 -3.507,0.481 -0.85,0.318 -1.506,0.833 -1.966,1.544 -0.463,0.711 -0.762,1.634 -0.904,2.771 -0.143,1.136 -0.213,2.523 -0.213,4.159 v 25.795 c 0,0.497 0.177,0.941 0.532,1.332 0.354,0.391 0.814,0.586 1.382,0.586 H 4.89 c 2.126,0 3.879,-0.23 5.26,-0.69 1.382,-0.462 2.445,-1.081 3.189,-1.861 0.744,-0.78 1.257,-1.718 1.541,-2.816 0.282,-1.1 0.425,-2.285 0.425,-3.561 h 2.445 v 19.982 h -2.445 c 0,-1.275 -0.143,-2.444 -0.425,-3.507 -0.284,-1.063 -0.797,-2.003 -1.541,-2.816 -0.744,-0.816 -1.807,-1.453 -3.189,-1.913 C 8.769,-23.86 7.016,-24.09 4.89,-24.09 H 1.701 c -0.568,0 -1.028,0.196 -1.382,0.588 -0.355,0.392 -0.532,0.839 -0.532,1.34 v 17.987 c 0,1.642 0.07,3.032 0.213,4.175"
             style="fill:#1a5a5a;fill-opacity:1;fill-rule:nonzero;stroke:none"
             id="path24" /></g><g
           id="g26"
           transform="translate(326.9043,227.5234)"><path
             d="m 0,0 c -0.462,-1.312 -1.152,-2.497 -2.072,-3.561 -0.923,-1.062 -2.092,-1.931 -3.508,-2.603 -1.418,-0.675 -3.119,-1.01 -5.102,-1.01 h -11.372 c -1.488,0 -2.675,0.159 -3.56,0.479 -0.887,0.318 -1.56,0.832 -2.02,1.541 -0.462,0.707 -0.762,1.647 -0.904,2.816 -0.143,1.169 -0.212,2.567 -0.212,4.198 v 49.635 c 0,1.629 0.069,3.011 0.212,4.145 0.142,1.132 0.442,2.073 0.904,2.817 0.46,0.744 1.133,1.275 2.02,1.594 0.885,0.319 2.072,0.478 3.56,0.478 v 2.126 h -25.615 v -2.126 c 1.488,0 2.674,-0.159 3.561,-0.478 0.885,-0.319 1.557,-0.85 2.019,-1.594 0.46,-0.744 0.761,-1.685 0.903,-2.817 0.142,-1.134 0.213,-2.516 0.213,-4.145 V 1.86 c 0,-1.631 -0.071,-3.029 -0.213,-4.198 -0.142,-1.169 -0.443,-2.109 -0.903,-2.816 -0.462,-0.709 -1.134,-1.223 -2.019,-1.541 -0.887,-0.32 -2.073,-0.479 -3.561,-0.479 V -9.3 H 1.967 L 3.348,3.88 H 0.903 C 0.76,2.604 0.46,1.311 0,0"
             style="fill:#1a5a5a;fill-opacity:1;fill-rule:nonzero;stroke:none"
             id="path28" /></g><g
           id="g30"
           transform="translate(372.0742,244.3701)"><path
             d="m 0,0 c -0.39,-0.497 -0.975,-0.851 -1.753,-1.063 l -18.069,-4.784 c -1.063,-0.283 -1.631,-0.264 -1.7,0.054 -0.072,0.319 -0.037,0.69 0.105,1.116 l 10.629,30.078 c 0.353,1.064 0.797,1.612 1.329,1.648 0.531,0.035 1.01,-0.515 1.435,-1.648 L -0.159,2.763 C 0.336,1.416 0.389,0.495 0,0 M 20.354,-20.509 -3.029,45.915 H -6.218 L -29.6,-20.187 c -0.568,-1.705 -1.453,-2.771 -2.657,-3.196 -1.206,-0.426 -2.657,-0.638 -4.358,-0.638 v -2.125 h 14.667 v 2.125 c -1.205,0 -2.162,0.124 -2.869,0.373 -0.709,0.247 -1.188,0.69 -1.436,1.328 -0.249,0.637 -0.265,1.541 -0.053,2.71 0.213,1.169 0.638,2.711 1.276,4.624 l 1.488,4.144 c 0.355,0.991 0.797,1.629 1.328,1.913 0.532,0.283 1.186,0.532 1.967,0.744 l 18.919,5.102 C 0.585,-2.657 1.859,-3.154 2.498,-4.57 L 6.111,-14.986 C 7.387,-18.6 7.828,-21.01 7.439,-22.214 7.05,-23.419 5.367,-24.021 2.392,-24.021 v -2.125 h 25.613 v 2.125 c -2.055,0 -3.702,0.176 -4.942,0.532 -1.24,0.355 -2.143,1.348 -2.709,2.98"
             style="fill:#1a5a5a;fill-opacity:1;fill-rule:nonzero;stroke:none"
             id="path32" /></g><g
           id="g34"
           transform="translate(478.4102,228.4805)"><path
             d="m 0,0 c -0.85,-2.232 -2.072,-3.97 -3.666,-5.208 -1.595,-1.241 -3.579,-2.057 -5.952,-2.444 -2.375,-0.391 -5.085,-0.585 -8.131,-0.585 h -3.188 c -1.489,0 -2.658,0.159 -3.508,0.478 -0.85,0.319 -1.506,0.832 -1.966,1.541 -0.462,0.707 -0.763,1.648 -0.903,2.817 -0.144,1.169 -0.213,2.567 -0.213,4.198 v 19.344 c 0,1.417 0.673,2.301 2.019,2.657 l 3.507,0.957 c 2.834,0.778 5.65,1.025 8.45,0.743 2.798,-0.283 5.296,-1.062 7.493,-2.338 2.196,-1.275 3.968,-3.029 5.314,-5.262 C 0.602,14.667 1.275,11.991 1.275,8.874 1.275,5.189 0.851,2.231 0,0 m -27.527,50.325 c 0,1.558 0.052,2.904 0.159,4.039 0.106,1.133 0.373,2.074 0.798,2.817 0.424,0.744 1.045,1.292 1.859,1.647 0.815,0.354 1.93,0.567 3.348,0.638 4.747,-0.143 8.431,-1.488 11.054,-4.039 2.621,-2.551 3.933,-6.661 3.933,-12.328 0,-2.482 -0.444,-4.677 -1.329,-6.59 -0.887,-1.914 -2.057,-3.561 -3.508,-4.943 -1.453,-1.381 -3.119,-2.55 -4.995,-3.507 -1.878,-0.956 -3.773,-1.684 -5.687,-2.179 l -3.613,-0.956 c -0.568,-0.144 -1.047,-0.071 -1.434,0.213 -0.391,0.281 -0.585,0.672 -0.585,1.169 z M 7.44,23.595 c -1.913,1.948 -4.234,3.348 -6.961,4.198 -2.729,0.851 -5.758,0.851 -9.087,0 1.841,0.495 3.629,1.223 5.367,2.179 1.735,0.957 3.276,2.161 4.623,3.614 1.346,1.451 2.427,3.135 3.242,5.048 0.813,1.914 1.222,4.039 1.222,6.378 0,3.967 -0.744,7.067 -2.232,9.3 -1.488,2.231 -3.472,3.878 -5.952,4.941 -2.481,1.063 -5.333,1.718 -8.556,1.967 -3.225,0.247 -6.537,0.372 -9.938,0.372 h -25.614 v -2.126 c 1.488,0 2.674,-0.159 3.561,-0.479 0.885,-0.318 1.558,-0.849 2.019,-1.593 0.461,-0.745 0.761,-1.701 0.903,-2.871 0.142,-1.169 0.213,-2.569 0.213,-4.198 V 0.797 c 0,-1.631 -0.071,-3.029 -0.213,-4.198 -0.142,-1.169 -0.442,-2.11 -0.903,-2.817 -0.461,-0.709 -1.134,-1.222 -2.019,-1.541 -0.887,-0.319 -2.073,-0.478 -3.561,-0.478 v -2.126 h 28.697 c 4.464,0 8.609,0.141 12.436,0.425 3.826,0.283 7.137,1.063 9.937,2.338 2.798,1.276 4.977,3.205 6.536,5.792 1.559,2.586 2.339,6.147 2.339,10.682 0,2.621 -0.531,5.243 -1.595,7.865 -1.062,2.621 -2.55,4.907 -4.464,6.856"
             style="fill:#1a5a5a;fill-opacity:1;fill-rule:nonzero;stroke:none"
             id="path36" /></g><g
           id="g38"
           transform="translate(527.3545,254.7324)"><path
             d="M 0,0 C -1.879,-0.957 -3.811,-1.684 -5.793,-2.179 L -9.3,-3.135 c -0.568,-0.143 -1.047,-0.071 -1.435,0.212 -0.391,0.282 -0.584,0.673 -0.584,1.169 v 26.04 c 0,3.117 0.335,5.367 1.008,6.749 0.673,1.382 2.356,2.143 5.05,2.285 1.416,-0.071 3.011,-0.355 4.782,-0.85 1.77,-0.496 3.418,-1.347 4.943,-2.551 1.522,-1.206 2.799,-2.87 3.826,-4.995 1.026,-2.126 1.541,-4.82 1.541,-8.077 C 9.831,13.87 9.388,11.301 8.503,9.141 7.615,6.979 6.446,5.154 4.995,3.667 3.542,2.179 1.876,0.957 0,0 M 21.628,-27.899 7.174,-1.01 c 2.055,0.707 3.985,1.558 5.792,2.551 1.806,0.991 3.384,2.195 4.73,3.613 1.345,1.417 2.408,3.083 3.189,4.996 0.778,1.913 1.169,4.146 1.169,6.697 0,3.117 -0.443,5.756 -1.325,7.918 -0.884,2.16 -2.086,3.914 -3.606,5.26 -1.521,1.345 -3.235,2.392 -5.144,3.136 -1.91,0.744 -3.871,1.292 -5.884,1.648 -2.015,0.353 -4.03,0.547 -6.044,0.584 -2.016,0.035 -3.836,0.053 -5.46,0.053 H -30.132 V 33.32 c 1.488,0 2.657,-0.159 3.508,-0.478 0.85,-0.319 1.504,-0.85 1.966,-1.594 0.46,-0.744 0.76,-1.685 0.903,-2.817 0.141,-1.134 0.212,-2.516 0.212,-4.145 v -49.635 c 0,-1.63 -0.071,-3.029 -0.212,-4.198 -0.143,-1.169 -0.443,-2.109 -0.903,-2.816 -0.462,-0.709 -1.116,-1.223 -1.966,-1.541 -0.851,-0.32 -2.02,-0.479 -3.508,-0.479 v -2.126 h 25.509 v 2.126 c -1.488,0 -2.677,0.159 -3.562,0.479 -0.886,0.318 -1.559,0.832 -2.019,1.541 -0.461,0.707 -0.762,1.647 -0.903,2.816 -0.143,1.169 -0.212,2.568 -0.212,4.198 v 17.325 c 0,1.488 0.671,2.408 2.011,2.763 l 3.496,0.957 c 0.635,0.141 1.29,0.247 1.96,0.319 0.671,0.069 1.219,-0.285 1.643,-1.063 l 15.786,-29.335 c 0.353,-0.568 0.848,-1.063 1.484,-1.488 0.633,-0.425 1.341,-0.638 2.119,-0.638 h 13.589 v 2.126 c -1.631,0 -3.189,0.407 -4.677,1.222 -1.488,0.814 -2.976,2.568 -4.464,5.262"
             style="fill:#1a5a5a;fill-opacity:1;fill-rule:nonzero;stroke:none"
             id="path40" /></g><g
           id="g42"
           transform="translate(603.1885,287.9463)"><path
             d="m 0,0 c 1.204,0 2.195,-0.107 2.977,-0.32 0.778,-0.213 1.397,-0.64 1.859,-1.278 0.46,-0.637 0.778,-1.56 0.956,-2.766 0.177,-1.207 0.267,-2.769 0.267,-4.685 v -45.135 c 0,-2.768 -0.571,-5.04 -1.706,-6.813 -1.138,-1.774 -2.613,-3.159 -4.424,-4.152 -1.815,-0.994 -3.857,-1.685 -6.13,-2.076 -2.276,-0.39 -4.514,-0.585 -6.716,-0.585 -3.056,0 -5.633,0.23 -7.729,0.692 -2.097,0.462 -3.802,1.223 -5.118,2.288 -1.315,1.064 -2.273,2.466 -2.878,4.205 -0.604,1.738 -0.905,3.886 -0.905,6.441 v 45.135 c 0,1.632 0.069,3.034 0.212,4.205 0.142,1.17 0.426,2.111 0.851,2.822 0.424,0.709 1.079,1.223 1.966,1.542 0.885,0.319 2.073,0.48 3.561,0.48 V 2.126 H -48.466 V 0 c 1.488,0 2.674,-0.161 3.561,-0.48 0.884,-0.319 1.557,-0.833 2.019,-1.542 0.46,-0.711 0.761,-1.652 0.904,-2.822 0.141,-1.171 0.212,-2.573 0.212,-4.204 v -45.134 c 0,-3.406 0.779,-6.137 2.338,-8.195 1.558,-2.06 3.649,-3.655 6.271,-4.792 2.621,-1.136 5.686,-1.88 9.194,-2.234 3.507,-0.355 7.209,-0.533 11.107,-0.533 2.975,0 5.756,0.267 8.343,0.798 2.585,0.532 4.871,1.402 6.856,2.609 1.982,1.206 3.542,2.82 4.676,4.842 1.132,2.023 1.7,4.524 1.7,7.505 v 45.134 c 0,1.915 0.089,3.477 0.266,4.684 0.176,1.206 0.478,2.129 0.903,2.766 0.426,0.638 1.026,1.065 1.807,1.278 C 12.47,-0.107 13.461,0 14.667,0 V 2.126 L 0,2.126 Z"
             style="fill:#1a5a5a;fill-opacity:1;fill-rule:nonzero;stroke:none"
             id="path44" /></g><g
           id="g46"
           transform="translate(677.9062,287.8398)"><path
             d="M 0,0 C 2.408,0 3.523,-0.815 3.348,-2.444 3.17,-4.075 1.947,-6.308 -0.319,-9.141 L -14.03,-27.422 c -0.284,-0.425 -0.638,-0.62 -1.063,-0.584 -0.426,0.035 -0.78,0.23 -1.062,0.584 l -13.606,18.601 c -0.849,1.275 -1.577,2.444 -2.177,3.507 -0.604,1.063 -0.958,1.983 -1.064,2.763 -0.106,0.78 0.123,1.399 0.69,1.861 0.567,0.46 1.595,0.69 3.083,0.69 V 2.126 H -54.737 V 0 c 1.488,0 2.78,-0.178 3.88,-0.531 1.097,-0.356 2.126,-0.904 3.082,-1.648 0.956,-0.743 1.894,-1.665 2.816,-2.762 0.92,-1.1 1.913,-2.393 2.977,-3.88 l 14.241,-19.45 c 0.566,-0.709 0.992,-1.506 1.275,-2.392 0.283,-0.887 0.461,-2.037 0.532,-3.454 v -24.551 c 0,-1.631 -0.071,-3.013 -0.212,-4.145 -0.143,-1.135 -0.444,-2.074 -0.904,-2.818 -0.462,-0.743 -1.135,-1.275 -2.019,-1.594 -0.887,-0.318 -2.074,-0.478 -3.561,-0.478 v -2.126 h 25.508 v 2.126 c -1.487,0 -2.657,0.16 -3.507,0.478 -0.85,0.319 -1.506,0.851 -1.966,1.594 -0.462,0.744 -0.762,1.683 -0.903,2.818 -0.144,1.132 -0.213,2.514 -0.213,4.145 v 24.551 c 0,1.417 0.159,2.567 0.479,3.454 0.318,0.886 0.759,1.683 1.328,2.392 L 2.869,-8.503 c 1.204,1.488 2.285,2.764 3.241,3.826 0.957,1.064 1.877,1.931 2.764,2.605 0.886,0.673 1.788,1.185 2.71,1.541 C 12.504,-0.178 13.532,0 14.667,0 V 2.126 H 0 Z"
             style="fill:#1a5a5a;fill-opacity:1;fill-rule:nonzero;stroke:none"
             id="path48" /></g><g
           id="g50"
           transform="translate(716.9082,283.0488)"><path
             d="m 0,0 c 0.142,1.132 0.425,2.075 0.85,2.806 0.423,0.755 1.085,1.297 1.981,1.604 0.872,0.329 2.052,0.495 3.56,0.495 h 11.462 c 1.98,0 3.701,-0.354 5.116,-1.014 1.415,-0.684 2.57,-1.533 3.49,-2.618 0.92,-1.061 1.627,-2.241 2.075,-3.561 0.472,-1.297 0.778,-2.594 0.92,-3.867 h 2.428 c -0.211,2.264 -0.447,4.481 -0.683,6.65 -0.235,2.052 -0.448,4.127 -0.66,6.226 0,0.093 -0.023,0.212 -0.023,0.306 H 18.465 13.018 -19.029 V 4.905 c 1.485,0 2.664,-0.166 3.513,-0.495 0.849,-0.307 1.509,-0.849 1.957,-1.58 0.472,-0.755 0.779,-1.698 0.92,-2.83 0.142,-1.132 0.213,-2.524 0.213,-4.151 v -49.615 c 0,-1.628 -0.071,-3.018 -0.213,-4.197 -0.141,-1.18 -0.448,-2.123 -0.92,-2.877 -0.448,-0.732 -1.108,-1.273 -1.957,-1.603 -0.849,-0.308 -2.028,-0.473 -3.513,-0.473 v -2.122 h 49.545 c 0.212,2.193 0.423,4.386 0.683,6.58 0.236,2.216 0.472,4.433 0.683,6.696 h -2.428 c -0.142,-1.273 -0.448,-2.57 -0.92,-3.866 -0.448,-1.321 -1.155,-2.524 -2.075,-3.609 -0.92,-1.108 -2.075,-2.004 -3.49,-2.664 -1.415,-0.684 -3.136,-1.015 -5.116,-1.015 H 6.391 c -1.508,0 -2.688,0.189 -3.56,0.543 -0.896,0.354 -1.558,0.872 -1.981,1.579 -0.425,0.708 -0.708,1.651 -0.85,2.831 -0.141,1.155 -0.212,2.569 -0.212,4.197 v 25.61 c 0,0.495 0.19,0.966 0.59,1.39 0.378,0.425 0.873,0.637 1.438,0.637 h 3.067 c 2.145,0 3.89,-0.235 5.281,-0.707 1.368,-0.448 2.452,-1.084 3.231,-1.91 0.778,-0.802 1.321,-1.745 1.604,-2.806 0.283,-1.061 0.424,-2.24 0.424,-3.514 h 2.43 v 19.974 h -2.43 c 0,-1.273 -0.141,-2.429 -0.424,-3.49 -0.283,-1.062 -0.826,-2.005 -1.604,-2.83 -0.779,-0.802 -1.863,-1.439 -3.231,-1.91 -1.391,-0.471 -3.136,-0.685 -5.281,-0.685 H 1.816 c -0.565,0 -1.06,0.19 -1.438,0.59 -0.4,0.378 -0.59,0.826 -0.59,1.321 v 17.922 c 0,1.627 0.071,3.018 0.212,4.174"
             style="fill:#1a5a5a;fill-opacity:1;fill-rule:nonzero;stroke:none"
             id="path52" /></g><g
           id="g54"
           transform="translate(718.6064,302.3145)"><path
             d="M 0,0 C -0.92,-0.071 -1.862,-0.283 -2.806,-0.637 -3.772,-1.015 -4.691,-1.51 -5.564,-2.146 -6.46,-2.783 -7.145,-3.49 -7.64,-4.291 L 3.3,-8.877 c 0.095,-0.04 0.196,-0.061 0.3,-0.061 h 6.893 c 0.732,0 1.057,0.919 0.487,1.379 L 2.123,-0.4 C 1.627,-0.071 0.92,0.071 0,0"
             style="fill:#1a5a5a;fill-opacity:1;fill-rule:nonzero;stroke:none"
             id="path56" /></g><g
           id="g58"
           transform="translate(784.2412,254.7324)"><path
             d="M 0,0 C -1.878,-0.957 -3.81,-1.684 -5.793,-2.179 L -9.3,-3.135 c -0.567,-0.143 -1.046,-0.071 -1.434,0.212 -0.391,0.282 -0.584,0.673 -0.584,1.169 v 26.04 c 0,3.117 0.335,5.367 1.008,6.749 0.673,1.382 2.355,2.143 5.049,2.285 1.416,-0.071 3.011,-0.355 4.782,-0.85 1.771,-0.496 3.418,-1.347 4.943,-2.551 1.522,-1.206 2.799,-2.87 3.826,-4.995 1.026,-2.126 1.541,-4.82 1.541,-8.077 C 9.831,13.87 9.388,11.301 8.503,9.141 7.616,6.979 6.447,5.154 4.995,3.667 3.542,2.179 1.876,0.957 0,0 M 21.629,-27.899 7.175,-1.01 c 2.054,0.707 3.985,1.558 5.792,2.551 1.806,0.991 3.383,2.195 4.729,3.613 1.346,1.417 2.408,3.083 3.189,4.996 0.779,1.913 1.169,4.146 1.169,6.697 0,3.117 -0.442,5.756 -1.325,7.918 -0.883,2.16 -2.086,3.914 -3.605,5.26 -1.521,1.345 -3.235,2.392 -5.144,3.136 -1.91,0.744 -3.871,1.292 -5.885,1.648 -2.014,0.353 -4.03,0.547 -6.043,0.584 -2.017,0.035 -3.837,0.053 -5.46,0.053 H -30.132 V 33.32 c 1.488,0 2.657,-0.159 3.508,-0.478 0.85,-0.319 1.505,-0.85 1.967,-1.594 0.46,-0.744 0.76,-1.685 0.902,-2.817 0.142,-1.134 0.213,-2.516 0.213,-4.145 v -49.635 c 0,-1.63 -0.071,-3.029 -0.213,-4.198 -0.142,-1.169 -0.442,-2.109 -0.902,-2.816 -0.462,-0.709 -1.117,-1.223 -1.967,-1.541 -0.851,-0.32 -2.02,-0.479 -3.508,-0.479 v -2.126 h 25.509 v 2.126 c -1.488,0 -2.676,0.159 -3.561,0.479 -0.886,0.318 -1.559,0.832 -2.019,1.541 -0.462,0.707 -0.763,1.647 -0.903,2.816 -0.144,1.169 -0.212,2.568 -0.212,4.198 v 17.325 c 0,1.488 0.67,2.408 2.011,2.763 l 3.496,0.957 c 0.635,0.141 1.29,0.247 1.96,0.319 0.671,0.069 1.219,-0.285 1.643,-1.063 l 15.786,-29.335 c 0.352,-0.568 0.847,-1.063 1.483,-1.488 0.634,-0.425 1.342,-0.638 2.12,-0.638 H 30.77 v 2.126 c -1.631,0 -3.189,0.407 -4.677,1.222 -1.488,0.814 -2.976,2.568 -4.464,5.262"
             style="fill:#1a5a5a;fill-opacity:1;fill-rule:nonzero;stroke:none"
             id="path60" /></g><g
           id="g62"
           transform="translate(868.0996,227.3105)"><path
             d="m 0,0 c -0.461,-1.312 -1.152,-2.497 -2.072,-3.56 -0.922,-1.063 -2.091,-1.931 -3.507,-2.604 -1.419,-0.674 -3.119,-1.01 -5.103,-1.01 H -22.16 c -1.488,0 -2.657,0.16 -3.507,0.481 -0.851,0.318 -1.507,0.833 -1.967,1.544 -0.462,0.711 -0.762,1.634 -0.903,2.771 -0.143,1.136 -0.213,2.523 -0.213,4.159 v 25.795 c 0,0.497 0.176,0.941 0.532,1.332 0.354,0.391 0.813,0.586 1.381,0.586 h 3.189 c 2.126,0 3.879,-0.23 5.261,-0.69 1.382,-0.462 2.445,-1.081 3.189,-1.861 0.744,-0.78 1.257,-1.718 1.541,-2.816 0.282,-1.1 0.425,-2.285 0.425,-3.561 h 2.444 v 19.982 h -2.444 c 0,-1.276 -0.143,-2.444 -0.425,-3.507 -0.284,-1.063 -0.797,-2.003 -1.541,-2.816 -0.744,-0.816 -1.807,-1.454 -3.189,-1.913 -1.382,-0.462 -3.135,-0.692 -5.261,-0.692 h -3.189 c -0.568,0 -1.027,0.196 -1.381,0.588 -0.356,0.392 -0.532,0.839 -0.532,1.34 v 17.987 c 0,1.642 0.07,3.032 0.213,4.175 0.141,1.143 0.441,2.088 0.903,2.838 0.46,0.75 1.116,1.284 1.967,1.606 0.85,0.321 2.019,0.482 3.507,0.482 h 11.478 c 1.984,0 3.684,-0.337 5.103,-1.01 1.416,-0.674 2.585,-1.541 3.507,-2.605 0.92,-1.062 1.611,-2.249 2.072,-3.559 0.46,-1.313 0.761,-2.605 0.903,-3.88 h 2.445 c -0.285,2.267 -0.532,4.481 -0.744,6.644 -0.212,2.16 -0.425,4.338 -0.638,6.536 h -49.635 v -2.126 c 1.488,0 2.675,-0.161 3.562,-0.481 0.884,-0.32 1.557,-0.834 2.019,-1.545 0.459,-0.712 0.76,-1.652 0.902,-2.825 0.142,-1.173 0.213,-2.578 0.213,-4.212 V 1.782 c 0,-1.636 -0.071,-3.022 -0.213,-4.158 -0.142,-1.138 -0.443,-2.061 -0.902,-2.771 -0.462,-0.711 -1.135,-1.228 -2.019,-1.546 -0.887,-0.321 -2.074,-0.481 -3.562,-0.481 V -9.3 H 1.966 c 0.213,2.196 0.426,4.375 0.638,6.537 0.212,2.16 0.459,4.374 0.744,6.643 H 0.903 C 0.761,2.604 0.46,1.311 0,0"
             style="fill:#1a5a5a;fill-opacity:1;fill-rule:nonzero;stroke:none"
             id="path64" /></g><g
           id="g66"
           transform="translate(208.6006,329.2158)"><path
             d="m 0,0 h -3.769 c -0.219,-1.966 -0.684,-3.961 -1.392,-5.98 -0.712,-2.023 -1.777,-3.851 -3.196,-5.49 -1.42,-1.638 -3.224,-2.977 -5.407,-4.014 -2.187,-1.04 -4.808,-1.557 -7.866,-1.557 h -17.533 c -2.293,0 -4.125,0.245 -5.489,0.737 -1.368,0.491 -2.405,1.283 -3.114,2.376 -0.711,1.091 -1.175,2.54 -1.392,4.342 -0.22,1.803 -0.327,3.959 -0.327,6.473 V 73.41 c 0,2.512 0.107,4.642 0.327,6.391 0.217,1.745 0.681,3.195 1.392,4.342 0.709,1.146 1.746,1.966 3.114,2.458 1.364,0.492 3.196,0.737 5.489,0.737 v 3.277 h -39.49 v -3.277 c 2.294,0 4.122,-0.245 5.489,-0.737 1.365,-0.492 2.401,-1.312 3.113,-2.458 0.71,-1.147 1.173,-2.597 1.394,-4.342 0.217,-1.749 0.327,-3.879 0.327,-6.391 V -3.113 c 0,-2.514 -0.11,-4.67 -0.327,-6.473 -0.221,-1.802 -0.684,-3.251 -1.394,-4.342 -0.712,-1.093 -1.748,-1.885 -3.113,-2.376 -1.367,-0.492 -3.195,-0.737 -5.489,-0.737 v -3.277 h 76.522 z"
             style="fill:#1a5a5a;fill-opacity:1;fill-rule:nonzero;stroke:none"
             id="path68" /></g><g
           id="g70"
           transform="translate(276.9297,347.5684)"><path
             d="m 0,0 -27.855,-7.374 c -1.64,-0.438 -2.516,-0.409 -2.624,0.082 -0.109,0.491 -0.056,1.065 0.165,1.721 l 16.386,46.372 c 0.545,1.639 1.229,2.484 2.048,2.54 0.819,0.054 1.557,-0.793 2.212,-2.54 L 2.458,5.899 C 3.221,3.822 3.303,2.401 2.703,1.639 2.102,0.873 1.201,0.327 0,0 m 6.555,-5.407 5.571,-16.059 c 1.966,-5.571 2.647,-9.286 2.049,-11.142 -0.603,-1.859 -3.196,-2.786 -7.784,-2.786 v -3.277 h 39.491 v 3.277 c -3.171,0 -5.711,0.271 -7.62,0.82 -1.913,0.548 -3.306,2.078 -4.179,4.595 L -1.967,72.427 h -4.915 l -36.05,-101.911 c -0.876,-2.627 -2.24,-4.272 -4.096,-4.926 -1.859,-0.656 -4.097,-0.984 -6.718,-0.984 v -3.277 h 22.612 v 3.277 c -1.859,0 -3.334,0.19 -4.424,0.574 -1.092,0.381 -1.831,1.064 -2.213,2.048 -0.383,0.983 -0.409,2.376 -0.081,4.178 0.329,1.803 0.983,4.179 1.966,7.128 l 2.294,6.391 c 0.546,1.528 1.23,2.512 2.048,2.949 0.82,0.436 1.829,0.819 3.032,1.147 l 29.167,7.866 c 2.949,0.655 4.916,-0.111 5.9,-2.294"
             style="fill:#1a5a5a;fill-opacity:1;fill-rule:nonzero;stroke:none"
             id="path72" /></g><g
           id="g74"
           transform="translate(426.8613,319.3848)"><path
             d="m 0,0 c -0.221,-1.749 -0.656,-3.196 -1.312,-4.343 -0.655,-1.146 -1.667,-1.967 -3.031,-2.458 -1.368,-0.491 -3.195,-0.737 -5.49,-0.737 v -3.277 H 29.33 v 3.277 c -2.294,0 -4.125,0.246 -5.489,0.737 -1.367,0.491 -2.375,1.312 -3.031,2.458 -0.656,1.147 -1.094,2.594 -1.311,4.343 -0.221,1.745 -0.328,3.876 -0.328,6.39 v 76.359 c 0,2.512 0.107,4.67 0.328,6.473 0.217,1.802 0.655,3.277 1.311,4.424 0.656,1.147 1.664,1.966 3.031,2.458 1.364,0.492 3.195,0.737 5.489,0.737 h 10.16 c 3.056,0 5.679,-0.52 7.864,-1.557 2.185,-1.039 3.987,-2.375 5.409,-4.014 1.418,-1.638 2.511,-3.469 3.277,-5.49 0.763,-2.022 1.254,-4.014 1.475,-5.98 h 3.768 c -0.327,3.385 -0.683,6.772 -1.065,10.159 -0.384,3.385 -0.738,6.772 -1.065,10.159 h -98.808 c -0.327,-3.387 -0.684,-6.774 -1.066,-10.159 -0.383,-3.387 -0.736,-6.774 -1.064,-10.159 h 3.768 c 0.218,1.966 0.681,3.958 1.393,5.98 0.71,2.021 1.774,3.852 3.195,5.49 1.419,1.639 3.221,2.975 5.408,4.014 2.184,1.037 4.806,1.557 7.865,1.557 h 10.323 c 2.295,0 4.122,-0.245 5.49,-0.737 1.364,-0.492 2.376,-1.311 3.031,-2.458 C -0.656,92.499 -0.221,91.024 0,89.222 0.217,87.419 0.326,85.261 0.326,82.749 V 6.39 C 0.326,3.876 0.217,1.745 0,0"
             style="fill:#1a5a5a;fill-opacity:1;fill-rule:nonzero;stroke:none"
             id="path76" /></g><g
           id="g78"
           transform="translate(501.416,341.9971)"><path
             d="m 0,0 16.387,46.372 c 0.545,1.64 1.228,2.484 2.048,2.54 0.818,0.054 1.556,-0.793 2.211,-2.54 L 32.772,11.471 C 33.535,9.394 33.617,7.973 33.018,7.21 32.416,6.444 31.516,5.898 30.314,5.571 L 2.458,-1.803 C 0.818,-2.24 -0.057,-2.212 -0.164,-1.721 -0.273,-1.229 -0.221,-0.655 0,0 m -16.714,-28.839 c -1.859,-0.656 -4.097,-0.983 -6.719,-0.983 V -33.1 h 22.614 v 3.278 c -1.86,0 -3.334,0.189 -4.424,0.573 -1.094,0.381 -1.831,1.064 -2.213,2.048 -0.384,0.983 -0.41,2.376 -0.082,4.179 0.328,1.802 0.983,4.178 1.967,7.127 l 2.294,6.391 c 0.546,1.528 1.229,2.512 2.048,2.949 0.819,0.436 1.829,0.82 3.031,1.148 L 30.97,2.458 c 2.949,0.655 4.916,-0.11 5.899,-2.294 l 5.571,-16.059 c 1.966,-5.571 2.648,-9.286 2.048,-11.142 -0.601,-1.859 -3.195,-2.785 -7.784,-2.785 V -33.1 h 39.491 v 3.278 c -3.17,0 -5.71,0.27 -7.619,0.819 -1.913,0.548 -3.305,2.078 -4.179,4.596 L 28.348,77.998 h -4.915 l -36.05,-101.911 c -0.876,-2.627 -2.24,-4.272 -4.097,-4.926"
             style="fill:#1a5a5a;fill-opacity:1;fill-rule:nonzero;stroke:none"
             id="path80" /></g><g
           id="g82"
           transform="translate(626.2764,312.748)"><path
             d="m 0,0 c -1.311,0.491 -2.322,1.282 -3.031,2.376 -0.711,1.091 -1.176,2.54 -1.393,4.342 -0.221,1.803 -0.328,3.959 -0.328,6.472 v 29.824 c 0,2.183 1.037,3.548 3.113,4.095 l 5.409,1.476 c 4.367,1.2 8.709,1.582 13.026,1.146 4.314,-0.437 8.165,-1.638 11.553,-3.604 3.384,-1.967 6.116,-4.67 8.193,-8.111 2.073,-3.442 3.113,-7.566 3.113,-12.372 0,-5.681 -0.656,-10.242 -1.967,-13.682 C 36.377,8.521 34.493,5.843 32.035,3.933 29.577,2.021 26.518,0.763 22.859,0.164 19.197,-0.437 15.019,-0.737 10.323,-0.737 H 5.408 C 3.113,-0.737 1.312,-0.492 0,0 m -4.752,89.55 c 0,2.401 0.082,4.478 0.246,6.226 0.164,1.746 0.574,3.196 1.23,4.343 0.655,1.148 1.609,1.991 2.867,2.54 1.255,0.545 2.974,0.872 5.162,0.983 7.317,-0.22 12.998,-2.294 17.041,-6.227 4.04,-3.933 6.062,-10.269 6.062,-19.008 0,-3.825 -0.682,-7.21 -2.047,-10.159 C 24.441,65.299 22.639,62.759 20.4,60.629 18.161,58.498 15.593,56.695 12.699,55.221 9.804,53.746 6.883,52.625 3.934,51.862 l -5.573,-1.475 c -0.875,-0.22 -1.612,-0.11 -2.212,0.328 -0.601,0.435 -0.901,1.037 -0.901,1.803 z M 29.495,-3.359 c 5.899,0.435 11.004,1.638 15.321,3.605 4.315,1.966 7.673,4.941 10.078,8.93 2.402,3.986 3.604,9.476 3.604,16.468 0,4.041 -0.818,8.084 -2.457,12.127 -1.64,4.04 -3.933,7.562 -6.883,10.568 -2.949,3.003 -6.528,5.161 -10.732,6.473 -4.207,1.31 -8.877,1.31 -14.01,0 2.839,0.762 5.597,1.883 8.274,3.358 2.676,1.476 5.052,3.332 7.128,5.572 2.075,2.237 3.742,4.834 4.998,7.783 1.255,2.95 1.884,6.227 1.884,9.832 0,6.117 -1.146,10.896 -3.44,14.337 -2.294,3.442 -5.354,5.982 -9.176,7.62 -3.826,1.639 -8.222,2.647 -13.191,3.032 -4.973,0.382 -10.079,0.573 -15.322,0.573 h -39.49 v -3.277 c 2.294,0 4.122,-0.246 5.489,-0.738 1.366,-0.491 2.402,-1.31 3.114,-2.458 0.71,-1.146 1.172,-2.621 1.393,-4.424 0.217,-1.802 0.327,-3.96 0.327,-6.472 V 13.19 c 0,-2.513 -0.11,-4.669 -0.327,-6.472 C -24.144,4.916 -24.606,3.467 -25.316,2.376 -26.028,1.282 -27.064,0.491 -28.43,0 c -1.367,-0.492 -3.195,-0.737 -5.489,-0.737 v -3.278 h 44.242 c 6.883,0 13.273,0.218 19.172,0.656"
             style="fill:#1a5a5a;fill-opacity:1;fill-rule:nonzero;stroke:none"
             id="path84" /></g><g
           id="g86"
           transform="translate(778.1758,329.2158)"><path
             d="m 0,0 h -3.77 c -0.218,-1.966 -0.683,-3.961 -1.391,-5.98 -0.712,-2.023 -1.777,-3.851 -3.196,-5.49 -1.421,-1.638 -3.224,-2.977 -5.408,-4.014 -2.186,-1.04 -4.808,-1.557 -7.865,-1.557 h -17.533 c -2.294,0 -4.125,0.245 -5.489,0.737 -1.369,0.491 -2.405,1.283 -3.114,2.376 -0.712,1.091 -1.175,2.54 -1.392,4.342 -0.221,1.803 -0.328,3.959 -0.328,6.473 V 73.41 c 0,2.512 0.107,4.642 0.328,6.391 0.217,1.745 0.68,3.195 1.392,4.342 0.709,1.146 1.745,1.966 3.114,2.458 1.364,0.492 3.195,0.737 5.489,0.737 v 3.277 h -39.49 v -3.277 c 2.294,0 4.122,-0.245 5.489,-0.737 1.365,-0.492 2.401,-1.312 3.113,-2.458 0.71,-1.147 1.173,-2.597 1.394,-4.342 0.217,-1.749 0.327,-3.879 0.327,-6.391 V -3.113 c 0,-2.514 -0.11,-4.67 -0.327,-6.473 -0.221,-1.802 -0.684,-3.251 -1.394,-4.342 -0.712,-1.093 -1.748,-1.885 -3.113,-2.376 -1.367,-0.492 -3.195,-0.737 -5.489,-0.737 v -3.277 h 76.522 z"
             style="fill:#1a5a5a;fill-opacity:1;fill-rule:nonzero;stroke:none"
             id="path88" /></g><g
           id="g90"
           transform="translate(870.2637,318.6465)"><path
             d="M 0,0 C 0.328,3.331 0.71,6.744 1.148,10.242 H -2.621 C -2.841,8.275 -3.305,6.281 -4.014,4.261 -4.726,2.238 -5.791,0.41 -7.209,-1.229 -8.63,-2.867 -10.433,-4.206 -12.616,-5.243 -14.804,-6.282 -17.425,-6.8 -20.482,-6.8 h -17.697 c -2.294,0 -4.096,0.246 -5.408,0.74 -1.309,0.492 -2.321,1.286 -3.031,2.381 -0.711,1.096 -1.175,2.52 -1.392,4.274 -0.22,1.751 -0.328,3.888 -0.328,6.41 v 39.77 c 0,0.766 0.271,1.45 0.819,2.053 0.545,0.603 1.255,0.904 2.13,0.904 h 4.916 c 3.278,0 5.981,-0.355 8.111,-1.065 2.131,-0.712 3.769,-1.667 4.916,-2.867 1.147,-1.203 1.938,-2.651 2.376,-4.343 0.435,-1.694 0.656,-3.522 0.656,-5.489 h 3.768 v 30.805 h -3.768 c 0,-1.965 -0.221,-3.768 -0.656,-5.407 -0.438,-1.638 -1.229,-3.088 -2.376,-4.342 -1.147,-1.256 -2.785,-2.24 -4.916,-2.95 -2.13,-0.712 -4.833,-1.064 -8.111,-1.064 h -4.916 c -0.875,0 -1.585,0.302 -2.13,0.906 -0.548,0.605 -0.819,1.293 -0.819,2.065 v 27.732 c 0,2.529 0.108,4.675 0.328,6.436 0.217,1.762 0.681,3.219 1.392,4.376 0.71,1.155 1.722,1.979 3.031,2.476 1.312,0.494 3.114,0.742 5.408,0.742 h 17.697 c 3.057,0 5.678,-0.519 7.866,-1.556 2.183,-1.04 3.986,-2.376 5.407,-4.015 1.418,-1.638 2.483,-3.469 3.195,-5.489 0.709,-2.023 1.173,-4.015 1.393,-5.981 H 1.148 C 0.71,84.197 0.328,87.609 0,90.943 c -0.327,3.331 -0.655,6.69 -0.982,10.078 h -76.523 v -3.278 c 2.293,0 4.122,-0.248 5.489,-0.739 1.365,-0.494 2.402,-1.288 3.114,-2.384 0.709,-1.097 1.173,-2.548 1.392,-4.355 0.217,-1.808 0.327,-3.974 0.327,-6.493 V 7.008 c 0,-2.522 -0.11,-4.659 -0.327,-6.411 -0.219,-1.753 -0.683,-3.177 -1.392,-4.273 -0.712,-1.096 -1.749,-1.892 -3.114,-2.384 -1.367,-0.494 -3.196,-0.74 -5.489,-0.74 v -3.277 H -0.982 C -0.655,-6.692 -0.327,-3.333 0,0"
             style="fill:#1a5a5a;fill-opacity:1;fill-rule:nonzero;stroke:none"
             id="path92" /></g><g
           id="g94"
           transform="translate(735.7236,477.7764)"><path
             d="m 0,0 h -470.822 c -3.447,0 -6.25,2.803 -6.25,6.249 0,3.446 2.803,6.25 6.25,6.25 L 0,12.499 c 3.446,0 6.249,-2.804 6.249,-6.25 C 6.249,2.803 3.446,0 0,0 m -454.388,29.837 c 3.2,-2.915 6.312,-5.706 9.327,-8.353 -0.495,-0.208 -0.913,-0.427 -1.282,-0.652 h -8.359 c 0.039,3.018 0.156,6.017 0.314,9.005 m 2.869,25.789 c 2.623,-4.922 5.698,-10.303 9.274,-15.933 3.337,-5.255 7.288,-10.997 11.859,-16.912 l 0.118,-0.215 c 0,0 0.026,-0.011 0.074,-0.03 0.438,-0.565 0.9,-1.136 1.351,-1.704 h -6.786 c 1.155,2.744 -2.455,3.21 -2.455,3.21 0,0 -0.653,5.927 -4.068,4.815 -1.461,-0.476 -2.077,-1.843 -2.306,-3.252 -3.112,2.754 -6.337,5.67 -9.648,8.709 0.526,7.204 1.389,14.314 2.587,21.312 m 73.765,-19.532 c -13.426,2.245 -27.144,10.207 -30.346,16.539 -1.173,2.321 -0.589,3.654 -0.048,4.456 0.367,0.543 0.816,0.814 1.483,0.886 0.049,0.005 0.1,0.009 0.152,0.013 5.901,0.365 19.431,-11.913 28.759,-21.894 m -71.741,29.792 c 0.652,0.275 1.404,0.592 2.308,0.973 4.602,1.942 1.038,3.912 -0.965,4.754 0.077,0.311 0.147,0.625 0.226,0.936 2.408,1.039 6.881,3.66 3.403,7.791 -0.332,0.394 -0.659,0.712 -0.982,0.977 2.687,9.046 5.913,17.861 9.679,26.389 7.349,-6.597 20.686,-11.924 31.823,-10.716 0.191,0.021 0.376,0.057 0.566,0.082 6.713,-16.982 14.771,-35.059 23.608,-52.582 0.009,-0.028 0.017,-0.055 0.025,-0.083 -1.363,1.357 -2.814,2.766 -4.323,4.171 -10.265,9.558 -17.675,14.055 -22.654,13.747 -2.085,-0.121 -3.817,-1.099 -4.967,-2.804 -1.229,-1.816 -2.265,-4.826 -0.23,-8.849 4.703,-9.299 23.575,-18.672 39.067,-19.475 1.884,-3.51 3.804,-6.954 5.737,-10.365 h -57.195 c -0.4,0.491 -0.809,0.983 -1.199,1.473 1.159,0.518 2.115,1.711 2.256,4.188 0.39,6.823 -6.359,4.376 -6.359,4.376 -1.05,1.12 -2.245,1.318 -3.245,1.198 -2.313,3.26 -4.426,6.422 -6.331,9.42 -0.886,1.393 -1.74,2.771 -2.565,4.131 1.301,-0.098 5.833,-0.317 6.033,1.389 0.231,1.994 -1.884,2.795 -1.884,2.795 0,0 3.919,0.807 4.805,4.947 0.885,4.14 -3.269,3.605 -3.269,3.605 -4.265,3.72 -5.879,-2.132 -5.879,-2.132 -3.738,3.29 -4.985,-0.299 -5.227,-1.193 -1.174,2.148 -2.254,4.207 -3.256,6.173 0.31,1.569 0.651,3.127 0.994,4.684 m 19.378,53.766 c 2.993,-1.008 7.634,-3.639 14.575,-9.94 3.427,-3.112 6.489,-6.291 8.576,-8.551 -10.209,-0.117 -21.627,5.442 -26.953,10.758 1.217,2.607 2.488,5.182 3.802,7.733 m 11.94,20.454 c 2.626,-9.499 6.167,-20.288 10.44,-31.811 -5.546,5.593 -13.438,12.6 -20.344,15.211 3.068,5.684 6.369,11.225 9.904,16.6 m 101.693,-29.043 c 0.559,0.558 1.125,1.2 1.692,1.979 0.228,-0.766 0.453,-1.542 0.671,-2.318 -0.679,0.162 -1.464,0.281 -2.363,0.339 m -10.428,7.514 c -0.305,1.747 -0.15,3.896 1.197,4.683 0.5,0.292 0.923,0.421 1.285,0.456 0.427,0.041 0.769,-0.048 1.046,-0.153 2.237,-0.844 4.368,-4.681 5.447,-7.445 -1.676,-2.5 -3.372,-3.717 -4.821,-3.447 -1.812,0.339 -3.638,2.933 -4.154,5.906 m 5.2,-12.229 c 0.828,0.153 1.579,0.258 2.259,0.324 2.246,0.219 3.715,0.014 4.629,-0.251 -2.546,-4.245 -4.817,-5.458 -6.18,-5.101 -1.311,0.343 -2.172,2.05 -2.123,3.366 0.045,1.248 0.779,1.544 1.415,1.662 m 92.09,-72.808 c -13.367,2.794 -24.806,12.52 -25.764,18.509 -0.257,1.608 0.325,2.588 1.947,3.279 0.36,0.153 0.741,0.247 1.139,0.285 5.964,0.579 15.913,-11.267 22.678,-22.073 m -1.05,49.171 c -11.807,-1.595 -24.064,-0.344 -27.39,6.117 -1.374,2.671 -0.544,5.758 2.276,8.472 0.823,0.792 1.746,1.228 2.852,1.335 0.335,0.032 0.687,0.035 1.059,0.009 6.585,-0.478 16.058,-9.958 21.203,-15.933 m -10.215,42.98 c -20.263,-3.943 -30.702,1.693 -32.673,5.416 -0.698,1.318 -0.484,2.401 0.671,3.408 0.289,0.253 0.956,0.646 2.371,0.783 2.625,0.255 7.826,-0.37 17.959,-4.403 4.368,-1.739 8.551,-3.681 11.672,-5.204 m -10.775,36.209 -0.111,-0.451 c -12.647,-3.23 -24.595,0.368 -28.726,4.775 -2.173,2.319 -1.39,3.932 -1.132,4.462 0.15,0.307 0.428,0.692 1.268,0.945 0.331,0.1 0.698,0.169 1.098,0.208 5.745,0.557 18.283,-4.946 27.603,-9.939 m -2.737,13.11 c -7.636,2.018 -19.975,9.712 -22.268,15.425 -0.6,1.497 -0.363,2.478 0.817,3.388 0.515,0.396 1.062,0.621 1.671,0.68 0.376,0.037 0.776,0.01 1.207,-0.077 5.917,-1.192 14.061,-12.298 18.573,-19.416 m 0.181,11.148 c -11.392,25.368 -8.897,35.309 -5.649,37.016 0.314,0.165 0.642,0.258 0.972,0.29 1.348,0.131 2.733,-0.757 3.39,-1.942 2.308,-4.165 2.109,-21.478 1.287,-35.364 m 10.405,-11.323 c 4.755,16.22 11.37,30.971 15.663,31.388 0.136,0.013 0.27,0.012 0.402,-0.004 0.901,-0.111 1.016,-0.456 1.107,-0.733 1.47,-4.432 -6.999,-19.036 -17.172,-30.651 m 7.571,-30.591 c 3.218,7.727 9.852,21.373 15.377,23.689 0.374,0.155 0.694,0.233 0.97,0.26 0.489,0.047 0.836,-0.064 1.082,-0.172 2.027,-0.895 1.455,-3.985 0.934,-5.748 -1.241,-4.198 -4.493,-9.073 -8.489,-12.72 -2.075,-1.894 -5.8,-4.752 -9.874,-5.309 m 10.425,-48.265 c 0.671,18.662 6.298,22.602 8.119,23.385 0.439,0.189 0.888,0.304 1.335,0.348 1.222,0.119 2.426,-0.304 3.384,-1.225 1.123,-1.079 2.017,-3.026 1.161,-5.253 -2.548,-6.633 -9.656,-13.498 -13.999,-17.255 m 5.463,-27.852 c 4.897,14.497 11.542,20.76 15.968,21.683 0.192,0.04 0.397,0.073 0.609,0.094 0.896,0.087 1.926,-0.053 2.625,-0.888 1.091,-1.306 1.051,-3.902 -0.106,-6.776 -3.846,-9.556 -13.857,-12.961 -19.096,-14.113 m 6.559,-47.295 h -6.076 c 5.026,8.486 11.744,17.522 15.64,17.9 0.457,0.062 1.006,-0.023 1.658,-0.847 1.552,-1.968 1.442,-4.481 -0.323,-7.471 -2.212,-3.743 -6.451,-7.273 -10.899,-9.582 m 39.464,12.423 c -2.945,1.378 -4.284,5.328 -4.538,8.948 -0.361,5.125 1.38,9.21 3.169,9.671 0.266,0.069 0.509,0.117 0.726,0.149 1.39,0.2 1.838,-0.283 2,-0.457 2.215,-2.385 0.628,-11.672 -1.357,-18.311 m -238.363,114.793 c 3.1,-1.861 5.797,-1.665 7.793,-0.89 2.889,1.122 3.713,3.018 3.893,4.41 0.315,2.413 -1.181,5.086 -3.199,7.51 0.18,0.219 0.354,0.443 0.535,0.662 5.091,-0.893 10.84,-1.23 14.296,0.734 1.722,0.978 2.845,2.474 3.246,4.325 0.417,1.917 -0.025,3.699 -1.278,5.153 -1.064,1.234 -2.704,2.143 -4.631,2.819 40.571,41.99 97.437,68.139 160.3,68.139 24.355,0 47.806,-3.933 69.762,-11.184 -0.069,-0.353 -0.103,-0.719 -0.091,-1.1 0.078,-2.449 1.388,-4.26 3.14,-5.556 -5.663,-1.62 -12.855,-4.427 -14.92,-8.587 -0.852,-1.719 -0.839,-3.555 0.04,-5.309 0.849,-1.693 2.308,-2.863 4.219,-3.383 4.17,-1.136 10.293,1.033 15.245,3.399 -1.667,-3.16 -2.785,-6.595 -1.767,-9.14 0.52,-1.303 1.789,-2.936 4.866,-3.305 2.962,-0.356 6.961,0.669 10.228,6.867 0.596,-21.532 -2.575,-54.502 -8.676,-88.421 -0.21,-1.169 -0.424,-2.306 -0.636,-3.454 -1.245,19.361 -4.815,36.321 -6.671,44.133 3.524,-2.214 8.671,-4.835 8.842,-1.389 0.26,5.256 -3.253,6.02 -3.253,6.02 0,0 2.829,3.874 -0.068,6.123 -2.895,2.248 -6.761,1.66 -6.761,1.66 0,0 -0.479,4.53 -2.959,5.19 -2.481,0.66 -5.442,-4.008 -5.442,-4.008 0,0 -8.197,4.487 -6.541,-7.374 0,0 -4.093,0.281 -3.262,-2.328 0.831,-2.61 8.821,-3.874 8.821,-3.874 0,0 0.333,-9.788 3.54,-8.108 1.626,0.851 2.586,3.486 3.139,5.878 2.546,-10.979 7.594,-36.462 6.569,-62.051 -4.431,-20.314 -9.13,-36.796 -13.588,-49.962 0.718,4.982 0.668,10.188 -1.826,12.874 -1.148,1.239 -3.294,2.519 -6.996,1.562 -4.784,-1.234 -6.851,-8.07 -6.42,-14.185 0.54,-7.648 4.399,-12.794 10.076,-13.431 l 0.363,-0.041 c -1.062,-2.727 -2.096,-5.252 -3.096,-7.594 h -29.982 c 2.745,2.17 5.108,4.696 6.689,7.372 2.693,4.558 2.691,8.952 -0.006,12.372 -1.823,2.311 -3.987,2.626 -5.482,2.482 -0.003,0 -0.004,0 -0.007,0 -4.113,-0.4 -8.992,-4.86 -14.915,-13.636 -1.015,-1.503 -1.965,-2.993 -2.825,-4.392 0.569,13.477 0.316,26.287 -0.488,38.257 3.004,0.325 19.795,2.78 25.652,17.33 1.81,4.497 1.593,8.575 -0.593,11.188 -1.727,2.064 -4.443,2.886 -7.453,2.259 -2.736,-0.571 -11.53,-3.82 -18.301,-22.004 -0.589,6.396 -1.323,12.517 -2.162,18.333 3.418,2.705 14.364,11.888 17.973,21.283 1.333,3.47 0.468,7.373 -2.205,9.944 -2.571,2.471 -6.19,3.135 -9.449,1.736 -2.892,-1.244 -7.146,-4.844 -9.356,-15.129 -0.114,0.577 -0.225,1.165 -0.34,1.733 -2.178,10.782 -4.745,20.845 -7.402,29.899 0.094,0.008 0.188,0.001 0.283,0.011 10.198,0.99 19.977,12.568 22.519,21.172 2.237,7.567 -1.596,10.182 -3.347,10.954 -1.706,0.753 -3.602,0.733 -5.485,-0.056 -6.718,-2.815 -13.235,-15.751 -16.616,-23.459 -2.2,6.855 -4.394,12.961 -6.413,18.157 5.783,5.719 11.844,13.307 16.412,20.609 3.919,6.266 8.254,14.753 6.645,19.606 -0.691,2.086 -2.362,3.392 -4.705,3.68 -5.518,0.671 -10.748,-6.169 -16.456,-21.54 -2.026,-5.456 -3.714,-10.977 -4.872,-15.04 -0.664,1.554 -1.292,2.972 -1.876,4.247 0.494,5.971 2.904,37.88 -1.279,45.428 -2.07,3.734 -6.638,5.255 -10.185,3.393 -2.232,-1.173 -5.84,-4.64 -4.928,-14.679 0.529,-5.827 2.484,-12.973 5.816,-21.329 -4.115,4.432 -7.839,7.012 -11.11,7.673 -2.358,0.476 -4.566,-0.016 -6.389,-1.42 -2.754,-2.121 -3.534,-5.121 -2.199,-8.449 3.241,-8.078 20.33,-18.029 28.968,-18.615 0.419,-1.009 0.856,-2.079 1.315,-3.227 l -0.177,-0.721 c -8.554,4.528 -23.828,11.71 -31.028,9.538 -1.81,-0.547 -3.164,-1.656 -3.918,-3.206 -1.493,-3.071 -0.812,-6.473 1.869,-9.334 4.775,-5.094 15.208,-8.243 26.36,-7.16 3.377,0.328 6.816,1.071 10.188,2.239 2.869,-7.897 6.072,-17.732 9.083,-29.164 -10.062,5.042 -31.054,14.423 -37.706,8.623 -2.686,-2.342 -3.305,-5.6 -1.655,-8.716 2.663,-5.032 12.493,-10.442 29.792,-8.761 3.463,0.336 7.248,0.979 11.313,1.944 1.028,-4.253 2.023,-8.685 2.954,-13.308 1.281,-6.361 2.487,-13.28 3.522,-20.682 -1.157,1.254 -2.465,2.616 -3.889,3.996 -6.973,6.755 -12.978,10.36 -17.851,10.715 -2.836,0.206 -5.271,-0.651 -7.24,-2.546 -4.239,-4.078 -5.407,-9.16 -3.127,-13.593 2.891,-5.614 11.826,-10.469 28.442,-8.856 1.548,0.151 3.19,0.381 4.874,0.648 1.438,-12.848 2.299,-26.947 2.169,-42.008 -5.825,9.151 -18.729,26.951 -28.7,22.703 -3.456,-1.471 -5.109,-4.373 -4.536,-7.962 0.716,-4.475 4.941,-9.818 11.302,-14.294 6.556,-4.613 14.251,-7.556 21.779,-8.389 -0.083,-2.587 -0.21,-5.21 -0.357,-7.849 h -60.524 c -0.101,0.224 -0.208,0.448 -0.307,0.671 1.557,0.266 3.078,1.408 4.013,4.35 2.58,8.103 -6.312,7.239 -6.312,7.239 -0.918,1.675 -2.297,2.282 -3.54,2.447 -1.779,4.644 -3.349,9.107 -4.719,13.309 -0.637,1.953 -1.241,3.877 -1.815,5.771 1.539,-0.521 6.932,-2.185 7.699,-0.19 0.896,2.331 -1.405,3.95 -1.405,3.95 0,0 4.971,-0.238 7.318,4.478 2.347,4.715 -2.825,5.353 -2.825,5.353 -3.99,5.802 -7.744,-0.752 -7.744,-0.752 -3.489,5.12 -6.101,1.18 -6.669,0.178 -1.212,4.767 -2.216,9.204 -3.048,13.234 1.104,0.165 3.105,0.463 6.759,1.009 8.117,1.211 -0.919,6.888 -0.919,6.888 0,0 12.16,0.512 8.296,8.536 -3.865,8.025 -10.946,0.073 -10.946,0.073 -4.87,0.405 -4.21,-3.115 -5.225,-5.564 -0.478,2.898 -0.829,5.343 -1.082,7.267 1.026,4.402 3.185,10.844 7.102,11.356 5.994,0.782 1.404,11.634 -6.234,10.292 0,0 0.946,8.466 -4.109,8.537 -3.558,0.048 -4.617,-2.711 -4.933,-4.352 -1.063,1.178 -2.3,2.176 -3.72,2.714 -1.991,0.754 -4.089,0.541 -6.066,-0.614 -2.776,-1.623 -4.003,-5.055 -3.285,-9.18 0.576,-3.311 2.531,-7.074 5.616,-8.711 -1.139,-1.043 -1.829,-2.517 -1.893,-4.277 -0.111,-3.079 1.865,-6.811 5.365,-7.728 0.606,-0.159 1.358,-0.258 2.221,-0.174 1.536,0.149 3.424,0.889 5.459,2.893 0.079,-0.636 0.171,-1.346 0.278,-2.128 -0.165,-0.13 -0.114,-0.324 0.075,-0.55 1.289,-9.302 4.472,-27.777 11.562,-49.545 2.399,-7.364 5.386,-15.505 9.068,-24.046 l 0.076,-0.296 c 0,0 0.027,-0.021 0.078,-0.059 0.341,-0.788 0.698,-1.584 1.052,-2.379 h -10.058 c -0.038,0.054 -0.074,0.105 -0.112,0.158 0.311,0.224 0.632,0.464 0.97,0.744 4.399,3.635 -0.895,5.73 -0.895,5.73 0,0 1.044,7.345 -3.416,7.06 -1.907,-0.122 -3.071,-1.58 -3.783,-3.207 -5.363,7.915 -10.967,16.492 -16.865,25.812 0.07,1.267 -0.214,2.397 -0.214,2.397 4.446,0.432 2.361,8.872 2.361,8.872 1.627,4.875 -5.199,8.802 -7.972,6.009 -1.221,-1.232 -1.815,-3.002 -2.097,-4.596 -2.047,3.313 -4.122,6.696 -6.239,10.177 0.056,0.521 0.075,1.084 0.011,1.743 0,0 4.947,3.975 2.821,7.07 -2.126,3.095 -7.791,3.666 -9.133,0.17 0,0 -3.659,3.011 -4.86,0.931 0,0 1.306,9.663 -2.028,9.339 -3.334,-0.324 -6.989,-6.008 -5.716,-7.568 1.274,-1.559 6.328,-1.628 6.49,-3.295 0.162,-1.667 -4.298,-11.636 0.973,-11.966 2.866,-0.179 6.202,-0.717 8.544,-0.016 2.297,-3.771 4.554,-7.448 6.769,-11.021 -2.6,-0.979 -6.638,-3.108 -6.649,-6.913 -0.016,-5.573 9.899,-5.2 13.986,-4.785 6.241,-9.835 12.164,-18.862 17.818,-27.14 -5.982,-0.885 -5.628,-4.468 -5.317,-5.705 h -45.4 c -4.303,7.52 -8.825,15.9 -13.526,25.258 -7.344,24.534 -8.78,50.472 -9.039,61.739 1.13,-2.18 2.714,-4.494 4.5,-4.915 3.525,-0.831 1.417,8.733 1.417,8.733 0,0 7.426,3.208 7.583,5.942 0.158,2.734 -3.738,1.446 -3.738,1.446 -1.34,11.901 -8.166,5.519 -8.166,5.519 0,0 -4.027,3.787 -6.266,2.532 -2.239,-1.254 -1.579,-5.762 -1.579,-5.762 0,0 -3.89,-0.389 -6.138,-3.286 -2.247,-2.897 1.455,-5.948 1.455,-5.948 0,0 -3.213,-1.612 -1.656,-6.639 1.02,-3.296 5.355,0.521 8.219,3.54 0.142,-8.028 0.893,-25.344 4.493,-44.407 -0.491,1.06 -0.98,2.108 -1.473,3.187 -12.942,28.308 -23.37,56.45 -28.782,77.112 0.738,1.063 1.492,2.116 2.249,3.165 m 5.688,7.548 c 1.171,-1.516 1.782,-2.759 1.69,-3.467 -0.054,-0.409 -0.66,-0.727 -1.16,-0.92 -1.202,-0.467 -2.429,-0.27 -3.63,0.352 1.019,1.356 2.051,2.703 3.1,4.035 m 11.614,13.622 c 2.174,-0.492 3.894,-1.176 4.693,-2.104 0.354,-0.412 0.448,-0.816 0.323,-1.394 -0.14,-0.643 -0.493,-1.096 -1.145,-1.467 -1.812,-1.028 -5.166,-1.058 -8.84,-0.6 1.628,1.881 3.28,3.74 4.969,5.565 m 164.65,107.56 c 17.112,0 31.187,-13.217 32.576,-29.978 -10.964,1.601 -22.172,2.443 -33.573,2.443 -10.704,0 -21.236,-0.748 -31.558,-2.162 1.522,16.627 15.537,29.697 32.555,29.697 m -10.779,23.097 c 0,5.944 4.836,10.779 10.779,10.779 5.942,0 10.778,-4.835 10.778,-10.779 0,-5.943 -4.836,-10.778 -10.778,-10.778 -5.943,0 -10.779,4.835 -10.779,10.778 m 94.803,-75.818 -4.683,0.653 c -1.502,0.21 -5.607,1.29 -6.239,3.535 3.686,-1.303 7.328,-2.7 10.922,-4.188 m 5.704,-4.181 -0.337,-2.554 c -0.067,-0.512 -0.169,-1.137 -0.3,-1.832 -0.067,-0.192 -0.109,-0.392 -0.119,-0.601 -1.108,-5.423 -3.998,-14.424 -8.956,-13.83 -0.531,0.064 -1.197,0.221 -1.35,0.604 -0.625,1.562 1.77,6.95 6.333,12.48 z m -0.595,1.997 -6.991,-4.522 c -5.373,-3.476 -15.508,-8.548 -19.849,-7.368 -0.724,0.198 -1.179,0.549 -1.474,1.138 -0.264,0.528 -0.274,0.942 -0.032,1.43 1.647,3.322 11.902,6.603 18.658,7.872 l 9.098,1.709 c 0.197,-0.087 0.393,-0.172 0.59,-0.259 m -8.367,-139.456 c 6.559,11.984 16.62,27.236 22.425,28.348 0.052,0.009 0.103,0.018 0.152,0.025 0.663,0.096 1.166,-0.055 1.656,-0.49 0.722,-0.642 1.62,-1.789 1.058,-4.329 -1.529,-6.928 -12.841,-18.046 -25.291,-23.554 m 54,2.925 c 1.054,1.829 2.641,3.793 3.868,4.086 0.156,0.04 0.272,0.043 0.407,0.01 0.169,-0.038 0.362,-0.138 0.571,-0.299 0.46,-0.353 0.526,-1.425 0.161,-2.609 v -0.001 c -0.586,-1.908 -1.925,-3.246 -2.805,-3.297 -0.669,-0.066 -1.454,0.742 -2.202,2.11 m 0.688,-8.065 c 0.258,-0.082 0.356,-0.112 0.319,-0.503 -0.052,-0.62 -0.594,-1.438 -1.145,-1.51 -0.405,-0.068 -1.471,0.476 -2.645,2.712 0.511,-0.021 1.155,-0.099 1.949,-0.279 0.459,-0.104 0.966,-0.242 1.522,-0.42 M -51.01,20.832 h -6.164 c -4.596,7.146 -6.51,14.832 -5.068,18.531 0.539,1.387 1.452,1.891 3.051,1.687 0.355,-0.046 0.699,-0.147 1.031,-0.301 3.864,-1.787 6.158,-10.606 7.15,-19.917 m 22.443,31.302 c -10.054,4.199 -19.148,10.853 -18.787,17.489 0.151,2.743 2.233,4.796 5.712,5.634 1.017,0.244 1.947,0.161 2.869,-0.266 0.28,-0.129 0.558,-0.289 0.839,-0.482 4.975,-3.421 8.069,-15.281 9.367,-22.375 m -109.261,100.565 c 1.461,2.707 3.639,6.548 6.186,10.413 7.887,11.963 12.703,14.299 14.871,14.627 0.011,0.002 0.023,0.003 0.034,0.005 1.34,0.193 2.466,-0.252 3.542,-1.398 0.956,-1.021 0.514,-2.875 -0.026,-4.252 -2.609,-6.656 -13.482,-16.679 -24.607,-19.395 m -1.835,-4.775 c 13.055,1.876 26.843,13.286 30.488,22.584 1.902,4.849 0.283,7.602 -0.851,8.81 -2.045,2.182 -4.578,3.123 -7.329,2.727 -0.022,-0.003 -0.044,-0.005 -0.067,-0.009 -7.773,-1.177 -16.234,-13.374 -21.43,-22.234 2.083,19.91 2.779,37.474 1.885,50.097 3.109,-4.074 7.538,-8.836 11.836,-9.806 0.892,-0.201 1.764,-0.241 2.596,-0.121 0.959,0.137 1.866,0.486 2.691,1.04 3.326,2.234 3.769,4.736 3.553,6.44 -0.059,0.467 -0.184,0.931 -0.357,1.39 37.454,-22.665 67.743,-56.032 86.586,-95.835 -3.072,2.461 -6.064,3.91 -8.612,3.428 -3.202,-0.607 -5.196,-2.892 -5.336,-6.113 -0.224,-5.202 5.032,-14.014 19.46,-20.685 1.439,-0.665 2.978,-1.306 4.611,-1.921 1.011,-3.063 1.967,-6.151 2.848,-9.271 -0.472,-1.446 -0.944,-2.892 -1.453,-4.372 -1.929,-5.612 -4.177,-11.628 -6.782,-17.948 -0.332,1.523 -0.736,3.204 -1.221,4.951 -2.38,8.553 -5.452,14.174 -9.134,16.707 -2.141,1.474 -4.461,1.923 -6.89,1.338 -5.23,-1.259 -8.501,-4.728 -8.75,-9.281 -0.316,-5.766 4.492,-13.729 18.349,-20.136 1.292,-0.597 2.694,-1.175 4.147,-1.742 -3.848,-8.651 -8.374,-17.77 -13.65,-27.13 h -4.53 c -1.01,10.225 -3.838,23.157 -11.681,24.159 -3.408,0.438 -6.053,-1.089 -7.26,-4.186 -1.504,-3.862 -0.64,-10.031 2.311,-16.504 0.541,-1.187 1.152,-2.339 1.797,-3.469 h -44.367 c -0.488,0.546 -1.143,1.011 -2.004,1.372 4.433,5.022 9.184,10.591 14.144,16.577 2.713,-0.585 7.118,-1.177 9.431,0.442 0.857,0.6 1.358,1.436 1.488,2.485 0.268,2.172 -1.046,4.231 -3.719,5.868 1.611,1.991 3.249,4.03 4.911,6.116 1.308,-0.421 2.898,-0.484 4.443,-0.546 0.464,-0.019 0.923,-0.037 1.367,-0.064 1.07,-0.083 1.748,0.378 2.112,0.767 1.348,1.45 0.937,4.495 0.636,6.716 -0.084,0.625 -0.191,1.401 -0.191,1.527 0.191,0.205 1.209,0.366 1.816,0.46 1.118,0.175 2.272,0.355 2.937,0.985 0.378,0.36 0.748,1.095 0.35,2.541 -0.462,1.676 -2.045,4.248 -4.12,4.718 -0.568,0.131 -1.098,0.005 -1.55,-0.359 -1.215,-0.978 -1.567,-3.721 -1.666,-5.486 -0.821,0.112 -1.764,-0.223 -2.429,-0.539 -0.479,0.801 -1.29,1.381 -2.336,1.641 -1.85,0.458 -3.979,-0.164 -5.184,-1.515 -1.682,-1.889 -0.199,-4.57 1.119,-6.071 -0.038,-0.238 -0.065,-0.476 -0.079,-0.724 -1.388,-1.743 -2.752,-3.448 -4.102,-5.122 -0.209,0.806 -0.537,1.501 -0.979,2.074 -0.995,1.295 -2.925,1.59 -4.813,0.736 -2.038,-0.925 -3.141,-2.759 -2.858,-4.714 -0.322,-0.903 -1.339,-4.096 -0.314,-6.017 0.248,-0.468 0.605,-0.834 1.048,-1.083 -0.067,-0.262 -0.13,-0.577 -0.169,-0.918 -4.661,-5.643 -9.165,-10.948 -13.406,-15.789 -0.717,1.316 -1.72,1.79 -2.513,1.942 -0.903,0.175 -1.722,-0.022 -2.366,-0.564 -1.3,-1.09 -1.577,-3.308 -1.632,-4.381 -0.689,-0.277 -1.772,-0.879 -2.094,-1.986 -0.102,-0.353 -0.115,-0.717 -0.045,-1.089 h -3.21 l 0.078,0.132 c 3.115,5.281 6.042,10.814 8.699,16.444 7.027,14.896 10.999,27.847 12.762,34.349 0.151,0.195 0.228,0.404 0.234,0.622 0.938,-0.875 1.951,-1.439 3.025,-1.682 0.623,-0.141 1.254,-0.172 1.88,-0.089 2.977,0.389 4.988,3.228 5.215,5.746 0.1,1.092 -0.103,2.107 -0.582,2.985 2.303,1.288 3.788,3.845 4.392,5.809 0.987,3.213 0.317,6.097 -1.791,7.715 -1.501,1.155 -3.206,1.545 -4.943,1.132 -0.726,-0.176 -1.455,-0.502 -2.177,-0.975 -0.506,1.688 -1.766,2.739 -3.594,2.946 -0.967,0.116 -1.869,-0.161 -2.577,-0.786 -1.361,-1.198 -1.798,-3.477 -1.938,-4.767 -1.874,0.262 -3.792,-0.368 -5.273,-1.78 -1.465,-1.399 -2.171,-3.234 -1.799,-4.676 0.264,-1.026 1.044,-1.755 2.195,-2.057 1.703,-0.445 2.962,-3.341 3.459,-7.951 -0.145,-0.543 -0.306,-1.142 -0.486,-1.796 -0.393,0.909 -1.199,1.677 -2.977,1.844 -0.661,0.854 -2.655,3.14 -5.031,3.14 h -0.049 c -1.463,-0.019 -2.751,-0.871 -3.824,-2.531 -1.002,-1.543 -1.219,-2.981 -0.652,-4.274 0.763,-1.738 2.828,-2.74 4.395,-3.269 -1.14,-0.755 -2.319,-1.836 -2.222,-3.037 0.124,-1.547 2.14,-2.113 2.801,-2.299 l 3.949,-1.111 c -0.8,-2.306 -1.647,-4.623 -2.53,-6.915 -0.415,0.473 -0.971,0.888 -1.691,1.01 -0.895,0.15 -1.809,-0.182 -2.746,-0.987 -0.526,0.823 -1.433,1.882 -2.729,2.101 -1.11,0.183 -2.218,-0.281 -3.294,-1.393 -0.641,-0.059 -1.94,-0.312 -2.684,-1.352 -0.593,-0.835 -0.661,-1.925 -0.203,-3.243 0.855,-2.448 2.647,-3.536 3.957,-4.017 -0.458,-0.628 -0.758,-1.47 -0.512,-2.476 0.388,-1.582 2.677,-1.699 4.97,-1.393 -0.394,-0.863 -0.797,-1.734 -1.213,-2.613 -1.361,-2.881 -2.826,-5.797 -4.357,-8.674 -1.019,-0.113 -1.902,-0.569 -2.592,-1.337 -0.985,0.136 -3.223,0.262 -4.621,-1.084 -1.033,-0.991 -1.371,-2.51 -1.003,-4.512 0.249,-1.349 0.714,-2.267 1.25,-2.899 h -42.146 c 6.769,16.237 12.73,35.476 17.707,55.64 14.807,4.623 30.762,18.387 33.01,28.562 0.971,4.403 -0.779,7.061 -2.419,8.516 -1.538,1.366 -3.458,1.883 -5.508,1.482 -4.901,-0.937 -10.963,-7.133 -18.532,-18.939 -1.114,-1.736 -2.17,-3.461 -3.154,-5.114 0.001,0.029 0.003,0.058 0.004,0.086 4.211,19.169 7.529,38.681 9.818,56.797 0.19,0.023 0.377,0.034 0.568,0.062 m 19.06,58.983 c 0.034,-0.266 0.136,-1.078 -1.664,-2.287 -0.554,-0.372 -1.142,-0.461 -1.905,-0.288 -4.144,0.934 -10.215,8.885 -13.109,13.736 10.947,-4.353 16.421,-9.11 16.678,-11.161 m 95.115,-104.236 c 1.356,-3.288 2.635,-6.613 3.837,-9.977 -13.967,6.102 -18.537,13.986 -18.388,17.457 0.059,1.363 0.727,2.119 2.105,2.379 0.345,0.066 1.052,0.068 2.234,-0.478 1.95,-0.902 5.194,-3.309 10.212,-9.381 m 10.237,-31.217 c 0.003,-0.01 0.005,-0.02 0.008,-0.031 -0.01,-0.011 -0.02,-0.02 -0.029,-0.031 0.007,0.021 0.014,0.042 0.021,0.062 m 2.206,-9.856 c -2.051,-0.536 -3.975,-0.944 -5.557,-1.237 1.585,2.496 3.081,4.566 4.484,6.295 0.376,-1.679 0.735,-3.364 1.073,-5.058 m 2.063,-12.111 c -4.167,-0.863 -9.834,-3.267 -16.907,-9.039 2.493,5.32 4.743,10.49 6.769,15.467 1.688,0.237 5.015,0.775 8.828,1.761 0.49,-2.712 0.919,-5.444 1.31,-8.189 m 1.518,-13.593 c -6.607,-2.836 -13.818,-1.297 -17.702,-0.038 6.709,5.827 12.429,8.697 16.719,9.684 0.396,-3.195 0.723,-6.411 0.983,-9.646 m 0.703,-15.062 h -29.155 c 2.319,4.181 4.495,8.313 6.52,12.371 2.089,-0.938 12.319,-5.084 22.22,-1.493 0.221,-3.605 0.363,-7.231 0.415,-10.878 m 8.761,0 H -0.44 C -1.836,132.75 -83.1,225.77 -189.745,245.41 c -0.593,18.482 -13.455,33.917 -30.698,38.391 5.292,3.402 8.812,9.329 8.812,16.074 0,10.539 -8.573,19.112 -19.111,19.112 -10.539,0 -19.112,-8.573 -19.112,-19.112 0,-6.745 3.521,-12.672 8.813,-16.074 -17.13,-4.444 -29.939,-19.705 -30.689,-38.025 C -379.36,226.94 -461.631,133.45 -463.036,20.832 h -7.786 c -8.04,0 -14.583,-6.541 -14.583,-14.583 0,-8.041 6.543,-14.583 14.583,-14.583 H 0 c 8.04,0 14.582,6.542 14.582,14.583 0,8.042 -6.542,14.583 -14.582,14.583"
             style="fill:#195a5a;fill-opacity:1;fill-rule:nonzero;stroke:none"
             id="path96" /></g></g></g></g></svg>
